<svg xmlns="http://www.w3.org/2000/svg" viewBox="0 0 48 48">
  <g fill="none" fill-rule="evenodd">
    <rect width="48" height="48" fill="#BB1919" rx="8"/>
    <g fill="#FFF" transform="translate(8 14)">
      <path d="M6.45968184,0.815319984 L7.57140245,0.815319984 L7.57140245,8.98939203 L6.56500274,8.98939203 L1.10001828,2.69939385 L1.10001828,8.98939203 L-2.22044605e-16,8.98939203 L-2.22044605e-16,0.815319984 L0.947888097,0.815319984 L6.45968184,7.15797861 L6.45968184,0.815319984 Z M9.03952464,0.815319984 L13.6736442,0.815319984 L13.6736442,1.85682666 L10.2097569,1.85682666 L10.2097569,4.34942128 L13.556621,4.34942128 L13.556621,5.39677912 L10.2097569,5.39677912 L10.2097569,7.93618303 L13.7848163,7.93618303 L13.7848163,8.9776897 L9.03952464,8.9776897 L9.03952464,0.815319984 Z M25.7217042,0.815319984 L26.8860852,0.815319984 L23.5801792,9.02449899 L23.3285793,9.02449899 L20.6545986,2.37758 L17.9572134,9.02449899 L17.7056135,9.02449899 L14.4114098,0.815319984 L15.5874931,0.815319984 L17.8401902,6.44998811 L20.1045895,0.815319984 L21.2163101,0.815319984 L23.4924118,6.44998811 L25.7217042,0.815319984 Z M29.8233681,5.56061163 L28.9339916,5.02230481 C28.3761781,4.68293577 27.9792783,4.34844774 27.7432803,4.01883068 C27.5072823,3.68921362 27.3892851,3.30986714 27.3892851,2.88077985 C27.3892851,2.23714891 27.6126021,1.71445041 28.059243,1.31266868 C28.5058839,0.91088694 29.0861182,0.709999084 29.7999634,0.709999084 C30.4826023,0.709999084 31.1086703,0.901135102 31.6781861,1.28341287 L31.6781861,2.61162644 C31.0891663,2.04601137 30.4552969,1.76320808 29.7765588,1.76320808 C29.394281,1.76320808 29.0802718,1.8519498 28.8345219,2.02943591 C28.5887719,2.20692202 28.4658987,2.43413983 28.4658987,2.71109618 C28.4658987,2.95684617 28.5556156,3.18698954 28.7350521,3.40153319 C28.9144886,3.61607683 29.2050934,3.8403691 29.6068751,4.07441671 L30.5021028,4.60102121 C31.5007059,5.19394183 32,5.95068443 32,6.87127171 C32,7.52660503 31.7805837,8.05905537 31.3417444,8.46863869 C30.9029051,8.87822201 30.3324226,9.0830106 29.6302798,9.0830106 C28.8228155,9.0830106 28.0875269,8.83531393 27.424392,8.33991315 L27.424392,6.85371823 C28.0563206,7.65338091 28.7877084,8.05320625 29.6185774,8.05320625 C29.985252,8.05320625 30.2904845,7.95081196 30.5342841,7.74602029 C30.7780837,7.54122863 30.8999817,7.2847553 30.8999817,6.97659261 C30.8999817,6.47729104 30.5411141,6.00530209 29.8233681,5.56061163 Z" transform="translate(0 10.1)"/>
      <path d="M20.9954047,7.9999362 L28.6560376,7.9999362 L28.6560376,0.78125 L20.9954047,0.78125 L20.9954047,7.9999362 Z M27.1352953,6.58529147 C27.117879,6.59358539 27.1010999,6.60081599 27.0843207,6.60910991 C27.0450278,6.62846238 27.0055225,6.64802752 26.9677163,6.66461536 C26.9267243,6.6841805 26.8848826,6.70161899 26.8470765,6.71905749 C26.7839954,6.74606589 26.7289853,6.76775768 26.682471,6.7856215 C26.6472135,6.79923203 26.6181155,6.81029059 26.5968761,6.81730852 L26.5522734,6.83325836 C26.507883,6.84857021 26.4600943,6.86388206 26.4110312,6.87898125 C26.3700392,6.89110313 26.326286,6.90322501 26.2827452,6.91534689 C26.2232748,6.93172206 26.1606185,6.94788457 26.0941391,6.9614951 C26.0518727,6.97106501 26.0085443,6.97893359 25.9628795,6.98744018 C25.8921523,7.00041272 25.8159028,7.01104595 25.7375293,7.02125384 C25.6854927,7.02763378 25.6323942,7.03358839 25.5782337,7.03784168 L25.5504101,7.04103165 C25.4125662,7.0527282 25.2636779,7.05910814 25.1026831,7.05910814 C25.0820809,7.05910814 25.0604167,7.05740682 25.0396021,7.05740682 C24.9952117,7.05655616 24.9508213,7.05549284 24.9070681,7.0527282 C24.8172254,7.04826225 24.7301438,7.04103165 24.6458233,7.0293351 C24.5625648,7.02061585 24.480793,7.00785598 24.402632,6.99360745 C24.3053554,6.97425497 24.2127516,6.95171253 24.124608,6.9272561 C24.0729962,6.91024294 24.022234,6.89493109 23.9744453,6.87834325 C23.9245327,6.86175542 23.8773812,6.84389159 23.8310792,6.8258151 C23.7085278,6.77668959 23.5965961,6.72267279 23.4961336,6.66589135 C23.4447343,6.63611831 23.3963084,6.60762125 23.350856,6.57806088 C23.3073152,6.55041448 23.2669603,6.5221301 23.2276674,6.49384571 C23.1958083,6.4710906 23.1658607,6.44620884 23.1365503,6.42324107 C23.1049036,6.39920997 23.0753808,6.37390289 23.0481943,6.35050979 C23.0069899,6.31605813 22.9708829,6.28075581 22.9385989,6.24928145 L22.9165099,6.22886565 C22.8767922,6.18845938 22.8358002,6.14613913 22.7950205,6.09807694 C22.7623118,6.06107331 22.7289659,6.0215177 22.6962572,5.98047343 C22.6656724,5.94049249 22.6348753,5.89881024 22.6047153,5.85542667 C22.5817767,5.82118767 22.5594753,5.78907532 22.5373864,5.75398567 C22.5106247,5.7099641 22.4842878,5.66402855 22.4585881,5.61681702 C22.4150473,5.5370678 22.3746924,5.45221464 22.3379482,5.36438417 C22.3137353,5.30909138 22.2931331,5.25145928 22.273168,5.19276386 C22.2570261,5.14491433 22.2427956,5.09706481 22.2298396,5.04538731 C22.2183703,5.00859634 22.2100869,4.97031672 22.2018036,4.93033578 C22.1981929,4.91140863 22.1941574,4.89354481 22.1901219,4.87397967 C22.1809889,4.8269808 22.1735551,4.77934394 22.1682453,4.73064375 L22.1644222,4.70278469 C22.1595371,4.66046444 22.1561388,4.61899485 22.1538025,4.57816325 C22.150829,4.53711899 22.1504042,4.49756338 22.1504042,4.45566846 C22.1504042,4.40016301 22.1529529,4.34593354 22.155714,4.29340539 C22.1595371,4.22301342 22.1669709,4.15474809 22.1756791,4.08775875 C22.2039275,3.87594484 22.2561765,3.67561481 22.3281781,3.48846999 C22.3853121,3.33875413 22.4551898,3.19945884 22.5358996,3.06845746 C22.5494928,3.04655301 22.5622365,3.02401057 22.5777412,3.00231878 C22.5974939,2.97084442 22.6191581,2.93937007 22.6414595,2.90832104 C22.6711947,2.86706411 22.702629,2.82665784 22.7340634,2.78752756 C22.7631614,2.75094926 22.7939585,2.71671026 22.8253929,2.68119528 C22.8564024,2.64759428 22.8876243,2.61548193 22.9194835,2.58294425 C22.9572896,2.54551528 22.9965826,2.5093623 23.0371498,2.47299666 C23.0813278,2.43407905 23.1278421,2.39622475 23.17733,2.35815779 C23.199419,2.34135729 23.2234195,2.3232808 23.2480572,2.30669297 C23.2748189,2.28627717 23.3030673,2.2662867 23.3330149,2.24714689 C23.3829275,2.21397122 23.4351765,2.18207153 23.4899742,2.14974651 C23.5460463,2.1174215 23.6048795,2.08615981 23.6658366,2.05659943 C23.7389002,2.02129711 23.8151497,1.98727078 23.8952223,1.95600909 C24.0506948,1.89561235 24.2186986,1.84393486 24.4009328,1.80565524 C24.4298184,1.79948797 24.4595536,1.79353336 24.4901384,1.78821674 C24.5115902,1.78396345 24.5345287,1.78056082 24.5559805,1.77673286 L24.6069551,1.76780095 L24.6481596,1.76184634 L24.6846914,1.75716772 C24.7295066,1.75121311 24.7741094,1.74653449 24.8197741,1.74249386 C24.8507837,1.73994189 24.8824304,1.73760258 24.9136523,1.73483794 C24.9688748,1.73228596 25.0255841,1.72909599 25.0833553,1.72824534 C25.1147896,1.72760734 25.1315687,1.72675668 25.1636403,1.72675668 C25.2326684,1.72675668 25.3044576,1.72909599 25.3766716,1.73334928 C25.4180885,1.73611392 25.458231,1.73824057 25.4990107,1.74249386 C25.5591182,1.74844847 25.618801,1.75461574 25.6767846,1.762697 L25.7186262,1.7686516 C25.7540961,1.77439355 25.7885039,1.78056082 25.8216374,1.78566477 C25.8619923,1.79353336 25.9031968,1.80118928 25.9431269,1.80884521 C25.9815702,1.81735179 26.0210755,1.82564571 26.0578197,1.83415229 C26.0826698,1.83925624 26.105396,1.84542351 26.1283346,1.85052746 C26.1640168,1.85967204 26.1999114,1.86881662 26.2347441,1.87881185 C26.2638421,1.88668044 26.2933649,1.89476169 26.3224629,1.90241762 L26.3485873,1.91007354 C26.3778977,1.91879279 26.4074205,1.92708671 26.4360937,1.93601862 C26.4749619,1.94728984 26.5129804,1.96111304 26.5497246,1.97259693 C26.5824333,1.98259216 26.6145048,1.99386338 26.6448772,2.00428395 C26.6833206,2.01768182 26.7190028,2.03044169 26.7527734,2.04235091 C26.8152173,2.06468069 26.8687407,2.08530915 26.9158922,2.10232232 C27.0193281,2.14166526 27.0794357,2.16612169 27.0794357,2.16612169 L27.0794357,3.13353282 L26.979398,3.07866536 C26.9420167,3.05888756 26.8961395,3.03230448 26.8432534,3.00487076 C26.811819,2.98934624 26.7791103,2.97254574 26.7438529,2.95446925 C26.7015865,2.93405345 26.6563465,2.91172367 26.6094074,2.89088255 C26.5518486,2.86451214 26.4921658,2.83707841 26.4295095,2.81198399 C26.38342,2.7939075 26.3358437,2.77476769 26.2874178,2.75732919 C26.2874178,2.75732919 26.2568331,2.74584531 26.2026725,2.72713083 C26.1710258,2.71671026 26.1306709,2.70352506 26.083307,2.68927653 C26.0518727,2.67949396 26.01704,2.66971139 25.9785967,2.66014149 C25.9218875,2.64440431 25.8560453,2.62930512 25.78638,2.6150566 C25.7407152,2.60612468 25.6916522,2.5976181 25.6411024,2.58953685 C25.5848179,2.58124293 25.5251351,2.57316168 25.4629037,2.56720707 C25.4306197,2.5640171 25.3968491,2.56295378 25.3637156,2.56061447 C25.3148649,2.55699917 25.2651647,2.55572318 25.2148273,2.55465986 C25.1918887,2.5538092 25.1693749,2.5538092 25.1457992,2.5538092 C25.077833,2.5538092 25.0064686,2.55657384 24.9351041,2.56295378 C24.8981476,2.56635641 24.8605538,2.56997171 24.8227476,2.57571365 C24.7851539,2.58039227 24.7462857,2.58613421 24.708692,2.59315215 C24.6749213,2.59974475 24.6398762,2.60612468 24.6050436,2.61463127 C24.5710605,2.62313785 24.5351659,2.63100644 24.5011829,2.64078901 C24.4650758,2.65099691 24.4279069,2.66163014 24.392437,2.67353935 C24.3578168,2.6858739 24.3242585,2.69735779 24.292187,2.71075565 C24.2586287,2.72415352 24.2252828,2.73670073 24.1929989,2.75201258 C23.9831535,2.84728631 23.780317,2.98339163 23.6002068,3.16288053 C23.5887375,3.17521508 23.5762062,3.18818762 23.5649494,3.19988417 C23.5417984,3.22476592 23.5201342,3.25113633 23.4986824,3.27665608 C23.4827528,3.29600855 23.4674604,3.31621169 23.4530176,3.3353515 C23.4107512,3.39064429 23.374007,3.44614974 23.3417231,3.50250585 C23.3279175,3.52845093 23.3130499,3.55333268 23.2998814,3.57821444 C23.2833147,3.61202811 23.2669603,3.64499111 23.2523051,3.67880478 C23.2416854,3.70411186 23.2310657,3.72814296 23.2223576,3.75196139 C23.2087643,3.78811437 23.1958083,3.82320402 23.1849762,3.85808101 C23.1735069,3.89784929 23.1630996,3.93400227 23.1543914,3.97058057 C23.1410106,4.02651135 23.1314528,4.08031549 23.1235943,4.12837768 C23.1119126,4.20961555 23.1078771,4.28170884 23.1055408,4.33785229 C23.1049036,4.36103272 23.104054,4.38144852 23.104054,4.40016301 C23.104054,4.42695874 23.1049036,4.46098507 23.1070275,4.50117868 C23.1078771,4.52712375 23.1095763,4.55540814 23.1125498,4.58645717 C23.1197712,4.66620638 23.1337892,4.76062945 23.1590641,4.86228312 C23.1684094,4.89886143 23.1779672,4.93586506 23.190286,4.9722307 C23.2055784,5.01986757 23.2234195,5.0700564 23.2442342,5.11939459 C23.2569778,5.14831697 23.2699338,5.17766468 23.2852262,5.20658706 C23.3024302,5.24061339 23.3204837,5.27570305 23.3408735,5.31058003 C23.3546791,5.33376047 23.3678476,5.3582169 23.3833523,5.38075934 C23.3997067,5.40479044 23.416061,5.42967219 23.4339021,5.45221464 C23.4525928,5.47837238 23.4721331,5.50453012 23.4927353,5.52877388 C23.5292671,5.57279545 23.5702592,5.61681702 23.6140124,5.66126391 L23.6259065,5.67210981 L23.635889,5.68082905 L23.652031,5.69762955 L23.6845273,5.7267646 C23.7072534,5.74654241 23.7344399,5.76929751 23.7616264,5.78971331 C23.7890252,5.81097977 23.817486,5.83160823 23.8457344,5.85202403 C23.8690978,5.86797388 23.8926736,5.88307306 23.9151873,5.89881024 C23.9394003,5.91305876 23.9625512,5.9266693 23.9848526,5.93942917 C24.0320041,5.96558691 24.0791556,5.990894 24.1275815,6.01258578 C24.1494581,6.02300635 24.1719719,6.03321425 24.1955476,6.04342215 C24.2085037,6.04873876 24.2220969,6.05405538 24.2352654,6.05958465 C24.2556552,6.06809124 24.2764698,6.07532183 24.2974968,6.08297776 C24.4374646,6.13465525 24.5795563,6.17059556 24.7214356,6.19483932 C24.810004,6.20908785 24.8975104,6.21887042 24.9833176,6.22461236 C25.0555316,6.2303543 25.1273209,6.23205562 25.1978357,6.23205562 C25.2292701,6.23205562 25.2636779,6.23056697 25.3016965,6.22886565 C25.3592553,6.22695167 25.4225488,6.22312371 25.4907273,6.21482979 C25.5344805,6.21078916 25.5807824,6.20440923 25.6285711,6.19717863 C25.6485362,6.19483932 25.6693508,6.19058603 25.6901654,6.18675807 C25.8632667,6.15741036 26.0605808,6.10828484 26.2738246,6.03044961 C26.3870307,5.98961801 26.5036351,5.94198115 26.6251246,5.88413638 C26.6943651,5.85202403 26.7633932,5.81523306 26.83497,5.7778041 C26.9005998,5.74228911 26.9649552,5.70379683 27.0320718,5.66232724 L27.1000379,5.62149564 C27.1112948,5.6151157 27.1236137,5.60831043 27.1352953,5.60086717 L27.1352953,6.58529147 Z M16.2048542,6.17123355 C16.1521804,6.17655017 16.1084272,6.17761349 16.0769929,6.17867681 C16.0472577,6.17931481 16.0287794,6.1799528 16.0287794,6.1799528 L15.1086879,6.1799528 L15.1086879,4.76169278 C15.1086879,4.76169278 15.67132,4.76233077 15.9986194,4.76233077 C16.0302662,4.76233077 16.0640368,4.76318143 16.0954712,4.76530807 C16.1317906,4.76807271 16.1668356,4.7693487 16.2001815,4.772964 C16.2579527,4.77891861 16.3127504,4.78699986 16.3643622,4.7963571 C16.4665238,4.81507158 16.5589153,4.84186732 16.6415366,4.87844563 C16.7037681,4.90566669 16.7615393,4.93692838 16.8118767,4.97393202 C16.8422491,4.9962618 16.8694355,5.0202929 16.894498,5.04538731 C16.9078789,5.0575092 16.9184986,5.07154506 16.9301803,5.08664424 C16.9877391,5.15661089 17.0206602,5.23465878 17.0380765,5.30292411 C17.0527317,5.35949289 17.0554928,5.41265903 17.0559176,5.43945476 C17.057192,5.46157188 17.057192,5.47326843 17.057192,5.47326843 C17.057192,5.47326843 17.057192,5.49155758 17.0542185,5.51984197 C17.0510326,5.58470467 17.0325543,5.70145752 16.960765,5.81459507 C16.9380389,5.84925939 16.91064,5.88371105 16.8779313,5.91773739 C16.7925488,6.00259055 16.6793428,6.06107331 16.5638003,6.10041625 C16.4361514,6.14401249 16.3046794,6.16187631 16.2048542,6.17123355 L16.2048542,6.17123355 Z M15.5540784,3.94952678 L15.1086879,3.94952678 L15.1086879,2.60463603 L15.722507,2.60463603 C15.7634991,2.60463603 15.8110754,2.60591202 15.8635367,2.60995265 C15.984389,2.61845923 16.1277551,2.63972569 16.2539172,2.69523114 C16.3182727,2.72394086 16.3792298,2.76179515 16.42893,2.81177132 C16.4709841,2.85260292 16.501144,2.89428518 16.5238702,2.93873207 C16.5697474,3.02953985 16.5818538,3.12566423 16.5856769,3.18393432 C16.5863141,3.21859865 16.5863141,3.2405031 16.5863141,3.2405031 C16.5863141,3.2405031 16.5863141,3.27091413 16.5818538,3.31684968 C16.5778183,3.3689525 16.5665614,3.44253444 16.5344899,3.51951902 C16.5090026,3.58225507 16.4705593,3.64669243 16.4115137,3.70538785 C16.3369634,3.77854446 16.2418108,3.82979663 16.1428351,3.8659496 C16.1184097,3.87466885 16.0931348,3.88168678 16.0684971,3.88913004 C15.9416978,3.92443236 15.8144737,3.93697957 15.7237814,3.94378484 C15.6910727,3.94527349 15.6541161,3.94740013 15.6237437,3.94888879 C15.584026,3.94952678 15.5540784,3.94952678 15.5540784,3.94952678 L15.5540784,3.94952678 Z M12.1700021,7.9999362 L19.8297855,7.9999362 L19.8297855,0.78125 L12.1700021,0.78125 L12.1700021,7.9999362 Z M14.1790386,1.79353336 L15.8641739,1.79353336 C16.7713094,1.79353336 17.1718848,2.26883867 17.1718848,2.26883867 C17.1718848,2.26883867 17.5391144,2.58613421 17.5391144,3.13757345 C17.5391144,3.68582271 17.2897636,3.91082183 17.2192487,3.98100114 C17.0697232,4.13071699 16.875595,4.22216276 16.875595,4.22216276 C16.875595,4.22216276 17.3067551,4.31297053 17.6448866,4.65046921 C18.0410018,5.04751396 18.0097798,5.56620285 18.0097798,5.56620285 C18.0097798,5.56620285 18.0410018,6.06234929 17.6126027,6.49044308 C17.08629,7.01827654 16.1337021,6.99254413 16.1337021,6.99254413 L14.1790386,6.99254413 L14.1790386,1.79353336 Z M7.37881444,6.17123355 C7.32614069,6.17655017 7.28132552,6.17761349 7.25095315,6.17867681 C7.22058079,6.17931481 7.20252728,6.1799528 7.20252728,6.1799528 L6.28222334,6.1799528 L6.28222334,4.76169278 C6.28222334,4.76169278 6.84549268,4.76233077 7.17236731,4.76233077 C7.20528841,4.76233077 7.23778471,4.76318143 7.26900666,4.76530807 C7.30575085,4.76807271 7.33994631,4.7693487 7.37520374,4.772964 C7.4312758,4.77891861 7.48649829,4.78699986 7.53895965,4.7963571 C7.64048406,4.81507158 7.73266313,4.84186732 7.81549686,4.87844563 C7.87815314,4.90566669 7.93486238,4.93692838 7.98583698,4.97393202 C8.01535977,4.9962618 8.0433958,5.0202929 8.06845831,5.04538731 C8.08183914,5.0575092 8.09288364,5.07154506 8.10371574,5.08664424 C8.16148696,5.15661089 8.19398327,5.23465878 8.21139959,5.30292411 C8.22584239,5.35949289 8.2292407,5.41265903 8.23051506,5.43945476 C8.23115225,5.46157188 8.23051506,5.47326843 8.23051506,5.47326843 C8.23051506,5.47326843 8.23051506,5.49155758 8.22817873,5.51984197 C8.22393084,5.58470467 8.20630213,5.70145752 8.13387572,5.81459507 C8.11199912,5.84925939 8.08460027,5.88371105 8.05146678,5.91773739 C7.96565953,6.00259055 7.85351541,6.06107331 7.7373358,6.10041625 C7.61032409,6.14401249 7.4786397,6.16187631 7.37881444,6.17123355 L7.37881444,6.17123355 Z M6.72740152,3.94952678 L6.28222334,3.94952678 L6.28222334,2.60463603 L6.89710446,2.60463603 C6.93682217,2.60463603 6.98461086,2.60591202 7.0377094,2.60995265 C7.1581369,2.61845923 7.30171536,2.63972569 7.42745271,2.69523114 C7.49202053,2.72394086 7.55297766,2.76179515 7.60352747,2.81177132 C7.64451955,2.85260292 7.67510431,2.89428518 7.69761809,2.93873207 C7.74392002,3.02953985 7.75581409,3.12566423 7.75900001,3.18393432 C7.76048677,3.21859865 7.75984958,3.2405031 7.75984958,3.2405031 C7.75984958,3.2405031 7.75984958,3.27091413 7.75581409,3.31684968 C7.75135382,3.3689525 7.74052171,3.44253444 7.70887498,3.51951902 C7.6827505,3.58225507 7.64451955,3.64669243 7.58504918,3.70538785 C7.51049883,3.77854446 7.41598342,3.82979663 7.31679534,3.8659496 C7.29194523,3.87466885 7.26645793,3.88168678 7.24245738,3.88913004 C7.11587046,3.92443236 6.98822156,3.93697957 6.89710446,3.94378484 C6.86418337,3.94527349 6.82765157,3.94740013 6.79706681,3.94888879 C6.75777389,3.94952678 6.72740152,3.94952678 6.72740152,3.94952678 L6.72740152,3.94952678 Z M3.34375,7.9999362 L11.0035333,7.9999362 L11.0035333,0.78125 L3.34375,0.78125 L3.34375,7.9999362 Z M5.35321124,1.79353336 L7.03834659,1.79353336 C7.94484491,1.79353336 8.34690707,2.26883867 8.34690707,2.26883867 C8.34690707,2.26883867 8.71349941,2.58613421 8.71349941,3.13757345 C8.71349941,3.68582271 8.46329907,3.91082183 8.39405857,3.98100114 C8.24347111,4.13071699 8.04891805,4.22216276 8.04891805,4.22216276 C8.04891805,4.22216276 8.480503,4.31297053 8.81799734,4.65046921 C9.21538683,5.04751396 9.18395249,5.56620285 9.18395249,5.56620285 C9.18395249,5.56620285 9.21538683,6.06234929 8.78613821,6.49044308 C8.26025025,7.01827654 7.30723761,6.99254413 7.30723761,6.99254413 L5.35321124,6.99254413 L5.35321124,1.79353336 Z"/>
    </g>
  </g>
</svg>
