<?xml version="1.0" encoding="UTF-8"?>
<svg viewBox="0 0 2511 999" version="1.1" xmlns="http://www.w3.org/2000/svg" xmlns:xlink="http://www.w3.org/1999/xlink">
    <!-- Generator: Sketch 47.1 (45422) - http://www.bohemiancoding.com/sketch -->
    <title>CBBC-Cbeebies</title>
    <desc>Created with Sketch.</desc>
    <defs></defs>
    <g id="Page-1" stroke="none" stroke-width="1" fill="none" fill-rule="evenodd">
        <g id="CBBC-Cbeebies" transform="translate(-7.000000, -3.000000)">
            <g id="g7951" transform="translate(503.184331, 501.577880) scale(-1, 1) rotate(-180.000000) translate(-503.184331, -501.577880) translate(0.184331, 0.577880)" fill-rule="nonzero">
                <polygon id="path7949" fill="#26275D" points="6.815669 999.57788 1005.81565 999.57788 1005.81565 0.57789 6.815669 0.57789"></polygon>
                <g id="g7953" transform="translate(0.000000, 41.632075)">
                    <path d="M353.027119,941.18749 L495.965797,941.18749 L495.965797,806.669803 L353.027119,806.669803 L353.027119,941.18749 Z M443.083722,922.46933 C442.429241,922.600226 441.818391,922.68749 441.120278,922.818386 L440.378533,922.90565 C439.287731,923.080179 438.153297,923.211075 437.062495,923.298339 C436.277118,923.341971 435.535373,923.429235 434.749995,923.472867 C433.397401,923.560132 432.088439,923.560132 430.779476,923.560132 C430.21226,923.560132 429.863203,923.560132 429.295986,923.560132 C428.205184,923.560132 427.158014,923.472867 426.110844,923.429235 C425.543627,923.385603 424.932778,923.341971 424.365561,923.298339 C423.536552,923.211075 422.663911,923.123811 421.878533,922.992915 L421.18042,922.90565 L420.395043,922.818386 L419.435137,922.643858 C419.042448,922.600226 418.606128,922.512962 418.213439,922.425698 C417.646222,922.338433 417.079005,922.207537 416.55542,922.120273 C413.152118,921.42216 410.010609,920.462254 407.130892,919.32782 C405.647401,918.716971 404.207543,918.106122 402.854948,917.451641 C401.720515,916.884424 400.586081,916.317207 399.538911,915.706358 C398.535373,915.095509 397.575467,914.528292 396.615562,913.873811 C396.091977,913.524754 395.568392,913.175698 395.044807,912.783009 C394.608486,912.477584 394.128533,912.128528 393.692213,911.823103 C392.819571,911.12499 391.94693,910.426877 391.11792,909.685132 C390.376175,908.987018 389.590798,908.332537 388.892684,907.634424 C388.325467,907.023575 387.714618,906.412726 387.147401,905.758245 C386.580184,905.147396 386.012968,904.492915 385.445751,903.838434 C384.878534,903.096688 384.267685,902.354943 383.700468,901.569566 C383.307779,901.002349 382.91509,900.3915 382.522402,899.824283 C382.260609,899.387962 381.998817,898.995273 381.737024,898.602585 C380.253534,896.159188 378.944571,893.541264 377.853769,890.748811 C376.544807,887.258245 375.54127,883.549519 375.017685,879.579 C374.886788,878.31367 374.755892,877.04834 374.668628,875.739377 C374.624996,874.779472 374.581364,873.775934 374.581364,872.728764 C374.581364,871.943387 374.581364,871.201642 374.624996,870.459896 C374.668628,869.674519 374.71226,868.889142 374.843156,868.147396 L374.886788,867.623811 C375.017685,866.707538 375.148581,865.791264 375.323109,864.918623 C375.366741,864.569566 375.454005,864.22051 375.54127,863.871453 C375.672166,863.17334 375.846694,862.431594 376.064854,861.733481 C376.283015,860.773576 376.544807,859.900934 376.850232,858.984661 C377.24292,857.893859 377.591977,856.846689 378.07193,855.799519 C378.770043,854.1415 379.511788,852.570746 380.297166,851.087255 C380.777119,850.214613 381.300703,849.341972 381.780656,848.512963 C382.173345,847.902113 382.609666,847.247632 383.045986,846.636783 C383.613203,845.807774 384.18042,845.066029 384.747637,844.324283 C385.358486,843.538906 385.969335,842.797161 386.580184,842.099048 C387.32193,841.226406 388.107307,840.441029 388.849052,839.699283 L389.241741,839.306595 C389.85259,838.695746 390.550703,838.041265 391.292449,837.430415 C391.816033,836.950463 392.339618,836.514142 392.950467,836.034189 C393.517684,835.597868 394.084901,835.161548 394.69575,834.725227 C395.393864,834.201642 396.135609,833.678057 396.964618,833.198104 C397.83726,832.630887 398.709901,832.06367 399.669807,831.540085 C401.545986,830.492916 403.640326,829.489378 405.909194,828.529472 C406.781835,828.224048 407.654477,827.874991 408.614382,827.569567 C409.487024,827.264142 410.44693,826.958717 411.406835,826.696925 C413.021222,826.216972 414.766505,825.780651 416.599052,825.431595 C418.038911,825.169802 419.566033,824.90801 421.136788,824.733482 C422.707543,824.558953 424.321929,824.384425 426.02358,824.340793 C426.808958,824.297161 427.637967,824.253529 428.466976,824.253529 C428.859665,824.253529 429.252354,824.209897 429.645043,824.209897 C432.655656,824.209897 435.448108,824.340793 438.022401,824.558953 L438.502354,824.602585 C439.549524,824.68985 440.553061,824.777114 441.512967,824.90801 C442.952825,825.082538 444.349052,825.300699 445.701646,825.562491 C446.530656,825.693387 447.359665,825.867916 448.145042,826.042444 C449.410372,826.304236 450.544806,826.566029 451.67924,826.871453 C452.50825,827.089614 453.293627,827.351406 454.079005,827.569567 C454.995278,827.831359 455.86792,828.136784 456.696929,828.398576 L457.525938,828.704 C457.918627,828.834897 458.485844,829.053057 459.140325,829.31485 C459.969335,829.620274 461.016504,830.056595 462.19457,830.536548 C462.936316,830.841972 463.678061,831.191029 464.463438,831.540085 C465.161552,831.889142 465.903297,832.238199 466.645042,832.587255 C466.950467,832.718151 467.255891,832.89268 467.561316,833.023576 L467.561316,851.392679 C467.386787,851.261783 467.124995,851.130887 466.906835,850.999991 L465.685136,850.258246 C464.419806,849.472868 463.198108,848.774755 461.97641,848.076642 C460.667448,847.378529 459.358486,846.680415 458.049523,846.069566 C455.780655,845.022397 453.642684,844.106123 451.504712,843.364378 C447.534193,841.924519 443.825467,841.008246 440.596693,840.441029 C440.204005,840.397397 439.854948,840.310132 439.462259,840.2665 C438.589618,840.135604 437.716976,840.004708 436.887967,839.917444 C435.622637,839.786548 434.444571,839.699283 433.353769,839.655651 C432.655656,839.655651 432.001175,839.612019 431.390326,839.612019 C430.124995,839.612019 428.772401,839.655651 427.419807,839.742915 C425.80542,839.873812 424.191033,840.04834 422.533014,840.310132 C419.91509,840.746453 417.209901,841.444566 414.635609,842.404472 C414.24292,842.535368 413.850231,842.666264 413.457543,842.840793 C413.239382,842.928057 412.97759,843.015321 412.715797,843.146217 C412.279477,843.320746 411.886788,843.495274 411.450467,843.713434 C410.534194,844.106123 409.661552,844.586076 408.788911,845.066029 C408.35259,845.327821 407.959901,845.589614 407.523581,845.851406 C407.08726,846.113198 406.607307,846.418623 406.214618,846.724047 C405.647401,847.073104 405.123816,847.465793 404.643864,847.858481 C404.120279,848.25117 403.596694,848.687491 403.160373,849.036547 L402.593156,849.603764 L402.287732,849.865557 L402.113203,850.040085 L401.851411,850.258246 C401.066033,851.087255 400.280656,851.916264 399.582543,852.745274 C399.233486,853.181595 398.840798,853.661547 398.535373,854.1415 C398.186316,854.577821 397.880892,855.014142 397.575467,855.494095 C397.270043,855.930415 397.00825,856.366736 396.746458,856.803057 C396.397401,857.413906 396.048345,858.068387 395.74292,858.722868 C395.481128,859.290085 395.219335,859.81367 394.957543,860.380887 C394.608486,861.297161 394.25943,862.213434 393.954005,863.086076 C393.735845,863.784189 393.561317,864.482302 393.386788,865.136783 C392.906835,867.056594 392.645043,868.801877 392.514147,870.285368 C392.470515,870.852585 392.426883,871.37617 392.38325,871.899755 C392.38325,872.597868 392.339618,873.252349 392.339618,873.775934 C392.339618,874.081358 392.38325,874.474047 392.38325,874.910368 C392.426883,875.957538 392.514147,877.310132 392.732307,878.837255 C392.863203,879.753528 393.037732,880.713434 393.299524,881.760604 C393.474052,882.458717 393.648581,883.113198 393.866741,883.854943 C394.041269,884.509424 394.303062,885.163906 394.564854,885.818387 C394.739383,886.298339 394.913911,886.73466 395.132071,887.214613 C395.393864,887.825462 395.699288,888.436311 396.004713,889.090792 C396.266505,889.527113 396.528298,890.007066 396.79009,890.487019 C397.400939,891.534188 398.099052,892.581358 398.840798,893.584896 C399.146222,893.977585 399.408015,894.326641 399.713439,894.71933 C400.106128,895.155651 400.542449,895.635604 400.935137,896.115556 C401.153298,896.333717 401.371458,896.595509 401.589618,896.81367 C404.99292,900.173339 408.745279,902.704 412.672165,904.449283 C413.283014,904.754707 413.893863,905.0165 414.504713,905.23466 C415.159194,905.496452 415.770043,905.714613 416.380892,905.932773 C417.079005,906.150934 417.777118,906.369094 418.431599,906.543622 C419.08608,906.718151 419.740562,906.892679 420.351411,907.023575 C421.005892,907.198103 421.660373,907.329 422.314854,907.459896 C423.012967,907.590792 423.71108,907.678056 424.409194,907.76532 C425.107307,907.852585 425.849052,907.939849 426.503533,907.983481 C427.856127,908.114377 429.16509,908.158009 430.474052,908.158009 C430.910373,908.158009 431.303061,908.158009 431.739382,908.158009 C432.699288,908.158009 433.615561,908.114377 434.531835,908.070745 C435.142684,908.027113 435.753533,907.983481 436.364382,907.896217 C437.498816,907.808952 438.63325,907.678056 439.68042,907.503528 C440.640325,907.372632 441.556599,907.198103 442.429241,907.023575 C443.738203,906.761783 444.916269,906.456358 446.007071,906.194566 C446.705184,906.020037 447.359665,905.801877 447.926882,905.627349 C448.843156,905.365556 449.584901,905.147396 450.19575,904.929236 C451.199288,904.580179 451.766505,904.362019 451.766505,904.362019 C452.682778,904.056594 453.55542,903.707537 454.428061,903.358481 C455.562495,902.878528 456.696929,902.398575 457.744099,901.87499 C458.660372,901.482302 459.489382,901.089613 460.274759,900.696924 C460.92924,900.3915 461.540089,900.042443 462.150938,899.737019 C463.154476,899.213434 463.983486,898.777113 464.681599,898.384424 L466.557778,897.380887 L466.557778,915.400934 C466.557778,915.400934 465.423344,915.837254 463.459901,916.579 C462.630891,916.928056 461.583721,917.277113 460.449287,917.713433 C459.838438,917.931594 459.140325,918.149754 458.442212,918.411547 C457.874995,918.586075 457.264146,918.804235 456.653297,919.022396 C455.955184,919.240556 455.257071,919.458716 454.515325,919.676877 C453.99174,919.851405 453.468155,920.025933 452.900939,920.15683 L452.420986,920.287726 C451.853769,920.462254 451.330184,920.59315 450.762967,920.767679 C450.152118,920.942207 449.454005,921.116735 448.799523,921.247632 C448.363203,921.378528 447.926882,921.465792 447.490561,921.596688 C446.792448,921.727584 446.050703,921.902113 445.308957,922.033009 C444.610844,922.207537 443.825467,922.338433 443.083722,922.46933 L443.083722,922.46933 Z" id="path7959" fill="#FFFFFF"></path>
                    <g id="g7961" transform="translate(243.157191, 823.389614)" fill="#FFFFFF">
                        <path d="M0,43.632075 L0,17.1910376 L17.1474055,17.1910376 C17.1474055,17.1910376 17.4964621,17.1910376 18.0636791,17.2346696 C18.630896,17.2346696 19.4599055,17.2783017 20.4634432,17.3655658 C22.3396224,17.5400942 24.7830186,17.8891508 27.1391507,18.6745281 C29.3207544,19.4162734 31.415094,20.5070753 32.9858487,22.121462 C33.6403298,22.7323111 34.1202827,23.3431601 34.5566034,23.9976413 C35.9091977,26.1356129 36.2146223,28.2735846 36.3018864,29.4952827 C36.3455185,30.0188676 36.3455185,30.3242921 36.3455185,30.3242921 C36.3455185,30.3242921 36.3455185,30.5860846 36.3455185,30.9787733 C36.3455185,31.5023582 36.2582543,32.5058959 35.9964619,33.5530657 C35.6910374,34.8183959 35.0801883,36.2582543 33.9893864,37.6108487 C33.7712261,37.8726411 33.5530657,38.0908015 33.3349053,38.3525939 C32.8549525,38.8325468 32.3313676,39.2688675 31.7641506,39.6615562 C30.847877,40.3596694 29.7570752,40.9705184 28.5790091,41.4504712 C27.0518865,42.1049524 25.3502356,42.6285373 23.4304243,42.9775939 C22.4705186,43.1521222 21.4233488,43.3266505 20.376179,43.4139146 C19.7216979,43.5011788 19.0672168,43.5448109 18.4127357,43.5884429 C17.8018866,43.5884429 17.1910376,43.632075 16.5801885,43.632075 C10.5153301,43.632075 0,43.632075 0,43.632075" id="path7963"></path>
                    </g>
                    <g id="g7965" transform="translate(243.157191, 863.583481)" fill="#FFFFFF">
                        <path d="M0,43.632075 L0,18.5436319 L8.33372633,18.5436319 C8.33372633,18.5436319 8.85731123,18.5436319 9.5990565,18.587264 C10.1662735,18.587264 10.8643867,18.630896 11.4752357,18.6745281 C13.1768867,18.8054243 15.5330187,19.0672168 17.9327828,19.6780658 C18.3691036,19.8525941 18.8490564,19.9834904 19.2853772,20.1580187 C21.1615564,20.8124998 22.9068394,21.7724054 24.3030658,23.1249998 C25.3938677,24.2158016 26.1356129,25.3938677 26.6155658,26.5719337 C27.1827827,28.0117922 27.4009431,29.4080186 27.4882073,30.3679242 C27.5754714,31.2405657 27.5754714,31.7641506 27.5754714,31.7641506 C27.5754714,31.7641506 27.5754714,32.2004714 27.5318393,32.8549525 C27.4882073,33.9457544 27.2700469,35.6910374 26.3974054,37.4363204 C26.0047167,38.2216977 25.3938677,39.007075 24.6521224,39.7924524 C23.6922167,40.708726 22.5577828,41.4068392 21.3797168,41.9740561 C19.0235847,42.9775939 16.3620281,43.4139146 14.0931602,43.5448109 C13.0896225,43.632075 12.216981,43.632075 11.4316037,43.632075 L0,43.632075 Z" id="path7967"></path>
                    </g>
                    <path d="M188.316036,941.18749 L331.254713,941.18749 L331.254713,806.669803 L188.316036,806.669803 L188.316036,941.18749 Z M225.795988,922.338433 L225.795988,825.475227 L262.272403,825.475227 C262.272403,825.475227 280.074289,824.951642 289.891506,834.768859 C297.876176,842.797161 297.308959,852.047161 297.308959,852.047161 C297.308959,852.047161 297.876176,861.689849 290.458723,869.107302 C284.175704,875.390321 276.147403,877.091972 276.147403,877.091972 C276.147403,877.091972 279.768865,878.793623 282.561318,881.586075 C283.87028,882.895038 288.49528,887.083717 288.49528,897.293622 C288.49528,907.590792 281.688676,913.481122 281.688676,913.481122 C281.688676,913.481122 274.183959,922.338433 257.254714,922.338433 L225.795988,922.338433 L225.795988,922.338433 Z" id="path7969" fill="#FFFFFF"></path>
                    <g id="g7971" transform="translate(78.454834, 823.389614)" fill="#FFFFFF">
                        <path d="M0,43.632075 L0,17.1910376 L17.1474055,17.1910376 C17.1474055,17.1910376 17.4964621,17.1910376 18.0636791,17.2346696 C18.6745281,17.2346696 19.4599055,17.2783017 20.4634432,17.3655658 C22.3396224,17.5400942 24.7830186,17.8891508 27.1391507,18.6745281 C29.3207544,19.4162734 31.415094,20.5070753 33.0294808,22.121462 C33.6403298,22.7323111 34.1202827,23.3431601 34.5566034,23.9976413 C35.9091977,26.1356129 36.2146223,28.2735846 36.3018864,29.4952827 C36.3455185,30.0188676 36.3455185,30.3242921 36.3455185,30.3242921 C36.3455185,30.3242921 36.3455185,30.5860846 36.3455185,30.9787733 C36.3455185,31.5023582 36.2582543,32.5058959 35.9964619,33.5530657 C35.6474053,34.8183959 35.0801883,36.2582543 33.9893864,37.6108487 C33.7712261,37.8726411 33.5530657,38.0908015 33.3349053,38.3525939 C32.8549525,38.8325468 32.3313676,39.2688675 31.7641506,39.6615562 C30.847877,40.3596694 29.7570752,40.9705184 28.6226412,41.4504712 C27.0518865,42.1049524 25.3502356,42.6285373 23.4304243,42.9775939 C22.4705186,43.1521222 21.4233488,43.3266505 20.376179,43.4139146 C19.7216979,43.5011788 19.0672168,43.5448109 18.4127357,43.5884429 C17.8018866,43.5884429 17.1910376,43.632075 16.5801885,43.632075 C10.5153301,43.632075 0,43.632075 0,43.632075" id="path7973"></path>
                    </g>
                    <g id="g7975" transform="translate(78.454834, 863.583481)" fill="#FFFFFF">
                        <path d="M0,43.632075 L0,18.5436319 L8.33372633,18.5436319 C8.33372633,18.5436319 8.85731123,18.5436319 9.5990565,18.587264 C10.1662735,18.587264 10.8643867,18.630896 11.4752357,18.6745281 C13.1768867,18.8054243 15.5330187,19.0672168 17.8891508,19.6780658 C18.3691036,19.8525941 18.8490564,19.9834904 19.2853772,20.1580187 C21.1615564,20.8124998 22.9068394,21.7724054 24.3030658,23.1249998 C25.3938677,24.2158016 26.1356129,25.3938677 26.6155658,26.5719337 C27.1827827,28.0117922 27.4009431,29.4080186 27.4882073,30.3679242 C27.5754714,31.2405657 27.5754714,31.7641506 27.5754714,31.7641506 C27.5754714,31.7641506 27.5754714,32.2004714 27.5318393,32.8549525 C27.4882073,33.9457544 27.2700469,35.6910374 26.3974054,37.4363204 C25.9610846,38.2216977 25.3938677,39.0070751 24.6521224,39.7924524 C23.6922167,40.708726 22.5577828,41.4068392 21.3797168,41.9740561 C19.0235847,42.9775939 16.3183961,43.4139146 14.0931602,43.5448109 C13.0896225,43.632075 12.216981,43.632075 11.4316037,43.632075 L0,43.632075 Z" id="path7977"></path>
                    </g>
                    <path d="M23.6049526,941.18749 L166.54363,941.18749 L166.54363,806.669803 L23.6049526,806.669803 L23.6049526,941.18749 Z M61.084905,922.338433 L61.084905,825.475227 L97.5613197,825.475227 C97.5613197,825.475227 115.363206,824.951642 125.180423,834.768859 C133.165093,842.797161 132.597876,852.047161 132.597876,852.047161 C132.597876,852.047161 133.165093,861.689849 125.74764,869.107302 C119.464621,875.390321 111.392687,877.091972 111.392687,877.091972 C111.392687,877.091972 115.057782,878.793623 117.850235,881.586075 C119.159197,882.895038 123.784197,887.083717 123.784197,897.293622 C123.784197,907.590792 116.977593,913.481122 116.977593,913.481122 C116.977593,913.481122 109.472876,922.338433 92.5436311,922.338433 L61.084905,922.338433 L61.084905,922.338433 Z" id="path7979" fill="#FFFFFF"></path>
                    <g id="g7981" transform="translate(658.617446, 456.958721)" fill="#F3611F">
                        <path d="M174.5283,87.26415 C146.254715,151.18514 99.8738197,205.332545 41.9304241,243.161554 L42.3667448,17.45283 C97.2558952,17.4964621 145.687498,45.1591976 174.5283,87.26415" id="path7983"></path>
                    </g>
                    <g id="g7985" transform="translate(701.001643, 61.377240)" fill="#EF3623">
                        <path d="M0,261.79245 L0,36.5200468 C57.7252352,74.3490558 103.887971,128.321933 132.117923,192.024762 C103.233489,234.129714 54.8891504,261.748818 0,261.79245" id="path7987"></path>
                    </g>
                    <g id="g7989" transform="translate(526.717683, 186.413677)" fill="#378BAA">
                        <path d="M0,43.632075 C0,43.632075 0,43.5884429 0.043632075,43.5884429 C80.4139142,41.5377354 146.211083,105.633254 146.211083,186.0908 L146.211083,530.042447 C102.142688,553.516503 52.6202825,568.089617 0,571.362022 L0,43.632075 Z" id="path7991"></path>
                    </g>
                    <g id="g7993" transform="translate(483.111787, 10.716038)" fill="#53C49B">
                        <path d="M43.632075,218.160375 L43.632075,218.160375 C43.632075,218.160375 43.5884429,218.160375 43.5884429,218.116743 L43.5884429,29.2334902 C96.2087254,32.5058959 145.731131,47.0790089 189.799526,70.5530653 L189.843158,75.7016501 C189.843158,156.115564 124.045989,220.254715 43.632075,218.160375" id="path7995"></path>
                    </g>
                    <g id="g7997" transform="translate(352.438086, 526.556244)" fill="#EF249C">
                        <path d="M0,0 L0.043632075,0 C80.8066029,0.043632075 146.254715,65.4917446 146.254715,146.254715 L146.254715,231.860847 C94.0707537,231.075469 44.5483486,219.207545 0,198.438677 L0,0 Z" id="path7999"></path>
                    </g>
                    <g id="g8001" transform="translate(352.438086, 29.093868)" fill="#D51378">
                        <path d="M0,43.632075 C44.5483486,22.8632073 94.0707537,10.9952829 146.254715,10.2099055 L146.254715,351.194572 C146.254715,431.957542 80.8066029,497.449287 0.043632075,497.449287 L0,497.449287 L0,43.632075 Z" id="path8003"></path>
                    </g>
                    <g id="g8005" transform="translate(144.505069, 49.801650)" fill="#89CF25">
                        <path d="M0,349.0566 C0,215.935139 72.3856124,99.7429234 179.938677,37.5672166 L179.938677,226.712262 C156.115564,261.57429 142.1533,303.679242 142.1533,349.0566 C142.1533,394.433958 156.115564,436.53891 179.938677,471.400938 L179.938677,660.545983 C72.3856124,598.370277 0,482.178061 0,349.0566" id="path8007"></path>
                    </g>
                </g>
            </g>
            <g id="CBeebies" transform="translate(1131.000000, 133.000000)">
                <g id="g2954" transform="translate(843.000000, 292.000000) scale(-1, 1) rotate(-180.000000) translate(-843.000000, -292.000000) translate(664.000000, 0.000000)" fill-rule="nonzero" fill="#000000">
                    <path d="M154.173689,125.273223 L287.20634,125.273223 L287.20634,0.0695718344 L154.173689,0.0695718344 L154.173689,125.273223 Z M237.982273,107.853092 C237.414849,107.966578 236.819053,108.051692 236.194886,108.165179 L235.485606,108.250293 C234.464242,108.392151 233.414507,108.505637 232.393143,108.619123 C231.683862,108.675866 230.974582,108.73261 230.265301,108.760981 C229.016968,108.846096 227.768634,108.874467 226.577043,108.874467 C226.009618,108.874467 225.697535,108.874467 225.158482,108.874467 C224.165489,108.846096 223.172496,108.789353 222.207875,108.73261 C221.668822,108.704238 221.129769,108.647495 220.590715,108.619123 C219.796321,108.534009 219.030298,108.448894 218.264275,108.363779 L217.611737,108.278665 L216.902457,108.165179 L215.994578,108.023321 C215.625752,107.966578 215.228555,107.881463 214.859729,107.82472 C214.349047,107.739605 213.809994,107.626119 213.299312,107.512633 C210.150106,106.860087 207.227871,105.952198 204.532605,104.90245 C203.142415,104.363391 201.808968,103.79596 200.532263,103.171786 C199.482528,102.661098 198.461164,102.122038 197.496542,101.554607 C196.560292,100.987176 195.624042,100.448117 194.744534,99.8523143 C194.262223,99.5118557 193.751541,99.1713971 193.26923,98.8309385 C192.872033,98.547223 192.446465,98.235136 192.049268,97.9230489 C191.226503,97.2705032 190.403737,96.6179576 189.637714,95.9370404 C188.928434,95.3128663 188.219153,94.6886922 187.594986,94.0361465 C187.027562,93.4687155 186.488509,92.9012845 185.949456,92.3338535 C185.410403,91.7380509 184.871349,91.1138768 184.389039,90.4897027 C183.821614,89.8087855 183.282561,89.0994968 182.771879,88.390208 C182.374682,87.8511485 182.005856,87.3120891 181.63703,86.7446581 C181.381689,86.3758279 181.154719,86.0069978 180.92775,85.6097961 C179.53756,83.340072 178.317597,80.9284903 177.324605,78.3183076 C176.076271,75.1123224 175.168392,71.6226218 174.686081,67.9343202 C174.515854,66.7710866 174.402369,65.5794815 174.317255,64.3878764 C174.288884,63.4516153 174.232142,62.5153541 174.232142,61.5507214 C174.232142,60.8414326 174.232142,60.1321439 174.288884,59.4512267 C174.345627,58.7135664 174.402369,58.0042776 174.487483,57.2949888 L174.515854,56.7843009 C174.629339,55.9331544 174.771195,55.1103795 174.941422,54.2876045 C174.998165,53.9755175 175.054907,53.6350588 175.11165,53.3229718 C175.281877,52.6420546 175.423733,51.9611374 175.622332,51.3085917 C175.849301,50.4290737 176.076271,49.6062987 176.359983,48.7551522 C176.700438,47.7621479 177.069264,46.7691437 177.466461,45.804511 C178.118999,44.2724472 178.828279,42.7971266 179.594302,41.4069207 C180.019871,40.5841457 180.47381,39.7897423 180.956121,39.052082 C181.324947,38.4279079 181.722144,37.8604769 182.119341,37.2930459 C182.630023,36.527014 183.169076,35.8177252 183.708129,35.1084365 C184.275554,34.3991477 184.871349,33.7182305 185.410403,33.0656849 C186.119683,32.2429099 186.857335,31.5052496 187.538244,30.8243324 L187.90707,30.4555022 C188.474494,29.8880712 189.098661,29.2922687 189.807942,28.6964661 C190.290252,28.2708929 190.800934,27.8453196 191.339987,27.4197463 C191.850669,27.0225446 192.389723,26.5969714 192.957147,26.1997697 C193.609685,25.7174533 194.318966,25.235137 195.084989,24.7528206 C195.879383,24.2421327 196.702148,23.7314448 197.581656,23.2207569 C199.340672,22.2561242 201.298286,21.2914915 203.426127,20.440345 C204.220521,20.1282579 205.043287,19.8161709 205.894423,19.5324554 C206.74556,19.2487399 207.596697,18.9650244 208.504576,18.7096804 C210.036621,18.2557356 211.653781,17.8869054 213.327683,17.5464468 C214.689502,17.2911029 216.108063,17.0641305 217.583366,16.8939012 C219.030298,16.7236719 220.533973,16.5818141 222.09439,16.4966995 C222.860413,16.4683279 223.626436,16.4399564 224.42083,16.4115848 C224.761285,16.4115848 225.130111,16.4115848 225.498936,16.4115848 C228.307687,16.4115848 230.889468,16.525071 233.272651,16.7236719 L233.754961,16.7520434 C234.719583,16.8371581 235.627462,16.9506443 236.535341,17.0641305 C237.89716,17.2343598 239.202236,17.4329606 240.450569,17.659933 C241.244964,17.8017908 241.982615,17.9436485 242.720267,18.0855063 C243.883487,18.3408502 244.961593,18.5961942 246.011328,18.8799097 C246.777351,19.0785106 247.515003,19.305483 248.224284,19.5040838 C249.07542,19.7877993 249.898186,20.0431433 250.69258,20.3268588 L251.430231,20.5822027 C251.827429,20.7240605 252.338111,20.8942898 252.933906,21.1496337 C253.7283,21.4617208 254.692922,21.8305509 255.799399,22.3128673 C256.451937,22.5965828 257.161218,22.9086698 257.89887,23.2491284 C258.551408,23.532844 259.232317,23.8733026 259.913226,24.1853896 C260.196938,24.3272474 260.509022,24.4691051 260.792734,24.6393344 L260.792734,41.6906362 C260.594136,41.57715 260.395537,41.4352922 260.196938,41.321806 L259.005347,40.6125172 C257.842127,39.9032285 256.73565,39.2506828 255.600801,38.6265087 C254.352467,37.9739631 253.132505,37.349789 251.940913,36.782358 C249.813072,35.7609821 247.798715,34.9382072 245.841101,34.2289184 C242.124471,32.8954556 238.719925,32.0443091 235.684204,31.5052496 C235.34375,31.4485065 234.974924,31.3917634 234.634469,31.3350203 C233.811704,31.2215341 233.01731,31.1080479 232.251287,31.0229332 C231.059696,30.909447 229.953218,30.8243324 228.960225,30.7959608 C228.307687,30.7675893 227.711892,30.7392177 227.144467,30.7392177 C225.924505,30.7392177 224.676171,30.7675893 223.427837,30.8810755 C221.924163,30.9661901 220.420488,31.1364194 218.888442,31.3917634 C216.420146,31.8173366 213.95185,32.4415108 211.511925,33.3210288 C211.17147,33.434515 210.802644,33.6047443 210.433819,33.7182305 C210.206849,33.8317167 209.979879,33.9168314 209.752909,34.0303176 C209.355712,34.1721753 208.958515,34.3424046 208.561318,34.5410055 C207.738553,34.9382072 206.887416,35.3637804 206.093022,35.8177252 C205.695825,36.0446976 205.298628,36.27167 204.873059,36.5553856 C204.475862,36.8107295 204.078665,37.0660735 203.681468,37.349789 C203.170786,37.6902476 202.688475,38.0307062 202.206165,38.4279079 C201.752225,38.7683665 201.269914,39.1655682 200.872717,39.5060268 L200.305293,40.0167147 L200.021581,40.3004302 L199.851353,40.4422879 L199.652755,40.6408888 C198.886732,41.4069207 198.177452,42.1729525 197.553285,42.9389844 C197.184459,43.3929292 196.844004,43.8185024 196.531921,44.2440757 C196.219837,44.6696489 195.936125,45.0952222 195.652413,45.5207955 C195.397072,45.9179972 195.141731,46.3151989 194.88639,46.7124006 C194.545935,47.3082031 194.233852,47.9323772 193.921769,48.5281798 C193.666428,49.0388677 193.439458,49.5495556 193.240859,50.031872 C192.872033,50.91139 192.55995,51.7909081 192.276238,52.5853115 C192.077639,53.2378571 191.907412,53.8904028 191.765556,54.4862054 C191.311616,56.273613 191.084647,57.8907914 190.94279,59.2809974 C190.886048,59.8200568 190.857677,60.3023732 190.829306,60.7846895 C190.800934,61.4656067 190.800934,62.0614093 190.800934,62.5153541 C190.800934,62.8274412 190.800934,63.1962713 190.829306,63.593473 C190.857677,64.5864773 190.94279,65.8064539 191.141389,67.2250315 C191.254874,68.076178 191.425101,68.9840676 191.652071,69.9487003 C191.822298,70.6012459 191.992526,71.22542 192.191124,71.9063373 C192.389723,72.5305114 192.616692,73.1263139 192.843662,73.750488 C193.013889,74.1760613 193.184117,74.6016345 193.354344,75.0272078 C193.609685,75.5946388 193.893397,76.1904414 194.205481,76.7578724 C194.43245,77.2118172 194.65942,77.6373904 194.914761,78.0913352 C195.482186,79.0559679 196.134724,80.0206006 196.844004,80.9852334 C197.099345,81.325692 197.383057,81.6661506 197.66677,82.0066092 C198.007224,82.460554 198.404421,82.8861272 198.801618,83.3117005 C199.000217,83.5386729 199.198815,83.7656453 199.397414,83.9642461 C202.546619,87.1134882 206.064651,89.4399554 209.696167,91.1138768 C210.263591,91.3692208 210.831016,91.5961932 211.426811,91.8231656 C211.994236,92.050138 212.56166,92.2487388 213.157456,92.4473397 C213.781623,92.6743121 214.434161,92.8729129 215.058327,93.0431422 C215.654123,93.2133716 216.249919,93.3552293 216.874086,93.4970871 C217.469881,93.6389448 218.065677,93.752431 218.661472,93.8659172 C219.31401,93.9794034 219.99492,94.0928896 220.647458,94.1780043 C221.299996,94.2631189 221.952534,94.319862 222.605072,94.3766051 C223.853406,94.4900913 225.073368,94.5468344 226.264959,94.5468344 C226.662156,94.5468344 227.059353,94.5468344 227.456551,94.5468344 C228.336058,94.5184629 229.187195,94.4900913 230.038332,94.4333482 C230.605756,94.4049767 231.201552,94.3482336 231.768976,94.2914905 C232.818711,94.2063758 233.868446,94.0645181 234.861439,93.9226603 C235.740947,93.7808026 236.592083,93.6389448 237.386478,93.4687155 C238.60644,93.2417431 239.712918,92.9580276 240.734282,92.7026836 C241.38682,92.5324543 241.982615,92.3338535 242.521668,92.1919957 C243.344434,91.9366518 244.053714,91.7096794 244.621139,91.5394501 C245.557389,91.1989915 246.068071,91.0003906 246.068071,91.0003906 C246.919208,90.7166751 247.741973,90.3762165 248.536367,90.0641295 C249.642845,89.6385562 250.664209,89.1562399 251.657201,88.702295 C252.479967,88.3334649 253.274361,87.9362632 254.012013,87.5958046 C254.636179,87.2837175 255.175233,87.000002 255.714286,86.7162865 C256.650536,86.2339702 257.44493,85.7800254 258.097468,85.4395668 L259.828113,84.5033056 L259.828113,101.270892 C259.828113,101.270892 258.778377,101.696465 256.990991,102.377382 C256.196596,102.689469 255.231975,103.029928 254.18224,103.398758 C253.586444,103.625731 252.962277,103.852703 252.281368,104.079675 C251.742315,104.249905 251.203262,104.448505 250.635837,104.618735 C249.983299,104.817336 249.330761,105.044308 248.649852,105.27128 C248.167541,105.413138 247.656859,105.554996 247.146177,105.696854 L246.692238,105.838711 C246.181556,105.980569 245.670874,106.122427 245.160192,106.264285 C244.564396,106.434514 243.940229,106.576372 243.316063,106.746601 C242.918865,106.831716 242.521668,106.91683 242.0961,107.030317 C241.443562,107.172174 240.762653,107.314032 240.081743,107.45589 C239.400834,107.597748 238.691554,107.739605 237.982273,107.853092 L237.982273,107.853092 Z" id="path2956"></path>
                    <g id="g2958" transform="translate(51.943672, 31.485582)">
                        <path d="M0,24.7599432 L0,0.16180905 L15.9729969,0.16180905 C15.9729969,0.16180905 16.2850803,0.16180905 16.8241335,0.190180601 C17.3631867,0.190180601 18.1292096,0.218552151 19.0370886,0.303666802 C20.7677331,0.473896104 23.0658019,0.785983157 25.278757,1.55201502 C27.2647424,2.20456067 29.2223566,3.22593649 30.7260313,4.72962865 C31.2934557,5.29705966 31.7757664,5.89286222 32.1445923,6.48866477 C33.4212972,8.4746733 33.7333806,10.4890534 33.790123,11.6239154 C33.8184943,12.1062317 33.8184943,12.3899472 33.8184943,12.3899472 C33.8184943,12.3899472 33.8468655,12.6169196 33.8184943,12.9857498 C33.8184943,13.4680662 33.7617518,14.4043273 33.5064108,15.36896 C33.1943274,16.5605651 32.626903,17.894028 31.6339103,19.1423762 C31.4353118,19.3693486 31.2367132,19.6246926 31.0097435,19.8232934 C30.5841752,20.2772382 30.1018644,20.7028115 29.5911825,21.0716416 C28.7116747,21.7241873 27.718682,22.2632468 26.6122044,22.7455631 C25.1936434,23.3697372 23.5764838,23.823682 21.8174682,24.1641406 C20.9095892,24.3343699 19.9449677,24.4762277 18.9803462,24.5613423 C18.3561794,24.6180854 17.7603837,24.646457 17.1362169,24.7032001 C16.5971637,24.7315716 16.0013681,24.7599432 15.4339437,24.7599432 C9.75969969,24.7599432 0,24.7599432 0,24.7599432" id="path2960"></path>
                    </g>
                    <g id="g2962" transform="translate(51.943672, 70.193600)">
                        <path d="M0,23.4541396 L0,0.132725244 L7.74534307,0.132725244 C7.74534307,0.132725244 8.25602503,0.132725244 8.93693431,0.161096794 C9.47598749,0.161096794 10.1001543,0.217839894 10.6675787,0.217839894 C12.256367,0.359697646 14.4693222,0.586670049 16.6822774,1.18247261 C17.1078457,1.29595881 17.533414,1.43781656 17.9589823,1.60804586 C19.6896267,2.20384842 21.3351575,3.11173803 22.6118624,4.36008624 C23.6615975,5.38146205 24.3141356,6.48795252 24.7680751,7.59444298 C25.3071283,8.92790584 25.5057268,10.2046256 25.5908405,11.1125152 C25.6475829,11.9069186 25.6475829,12.4176065 25.6475829,12.4176065 C25.6475829,12.4176065 25.6759541,12.8148082 25.6475829,13.4106108 C25.5908405,14.4319866 25.3638707,16.0775365 24.5694765,17.6663433 C24.1722795,18.4323752 23.6615975,19.1700355 22.9239458,19.8793243 C22.0728092,20.7304708 21.023074,21.411388 19.8882252,21.8937043 C17.7036413,22.8583371 15.2069739,23.2271672 13.1075036,23.369025 C12.1996246,23.4541396 11.348488,23.4541396 10.6675787,23.4541396 L0,23.4541396 Z" id="path2964"></path>
                    </g>
                    <path d="M0.912358707,125.273223 L133.945009,125.273223 L133.945009,0.0695718344 L0.912358707,0.0695718344 L0.912358707,125.273223 Z M35.8089593,107.739605 L35.8089593,17.5748184 L69.7409385,17.5748184 C69.7409385,17.5748184 86.2813597,17.1208736 95.4168926,26.2565128 C102.878523,33.689859 102.33947,42.2864387 102.33947,42.2864387 C102.33947,42.2864387 102.878523,51.2802202 95.984317,58.1745069 C90.1114745,64.0474178 82.6214724,65.6078531 82.6214724,65.6078531 C82.6214724,65.6078531 85.9976475,67.1966599 88.6077998,69.778471 C89.8277623,70.9984476 94.1401877,74.9137216 94.1401877,84.4181909 C94.1401877,93.9794034 87.7850344,99.4834842 87.7850344,99.4834842 C87.7850344,99.4834842 80.8057143,107.739605 65.0596872,107.739605 L35.8089593,107.739605 Z" id="path2966"></path>
                    <g id="g2968" transform="translate(115.679006, 199.548438)">
                        <path d="M47.5964546,249.120739 C47.8801668,253.404843 47.9652805,256.610828 47.9652805,256.610828 C48.3341064,264.583234 48.7029322,272.924469 49.4122127,278.882495 C50.8024025,292.500839 56.022707,313.609273 56.022707,313.609273 C59.0584275,326.433213 63.1438832,336.136283 66.7186569,342.973827 C69.3571804,347.96722 71.6552492,351.343434 73.0170678,353.159214 C84.3655558,371.402121 103.005447,383.233057 126.979128,383.233057 C162.897093,383.233057 191.410169,354.833135 191.693881,319.482183 C192.119449,309.126568 189.651153,298.090034 183.352742,286.6563 C170.216868,262.852569 166.017927,258.199635 165.308647,257.149887 C156.258227,242.652025 151.860688,235.984711 149.137051,230.934575 C147.406407,227.785333 146.668755,225.685838 144.058603,217.571575 L143.604663,216.20974 L145.023224,216.493456 C169.904784,221.657078 223.242678,217.656689 236.804121,168.205077 C237.853856,164.687005 239.187303,158.672236 240.095182,152.34538 L240.26541,149.451482 C242.308138,134.045731 240.662607,109.929913 231.300104,84.1401735 C230.335483,82.0123072 226.278398,73.2738697 221.483662,64.6205469 C217.086123,56.7048843 210.106803,45.0725487 202.247975,37.7243172 C202.219604,37.6959456 199.212254,33.950901 193.027328,28.6170495 C186.728918,23.1980834 177.451529,16.4456544 165.62073,11.1685461 C109.928025,-13.9686475 30.9141773,3.70682833 9.57901981,68.6776786 C-0.776475495,95.2334497 -1.00344526,119.94507 1.35136601,137.87589 C3.30898019,152.997926 7.11072367,163.722372 8.61439833,167.495788 C10.7422398,174.361704 14.5439833,181.766678 17.0406507,186.447984 C20.1047424,192.093922 22.9702357,196.690114 22.9702357,196.690114 C29.6658436,206.960615 35.4819437,214.904649 39.7943691,221.600335 C43.7095975,227.671847 45.0430448,230.792717 45.582098,233.204299 C46.6602044,237.828862 47.256,244.21246 47.5964546,249.120739" id="path2970"></path>
                    </g>
                </g>
                <g id="g2972" transform="translate(806.500000, 473.500000) scale(-1, 1) rotate(-180.000000) translate(-806.500000, -473.500000) translate(225.000000, 343.000000)" fill="#000000">
                    <g id="g2974" transform="translate(0.857525, 187.317002)">
                        <path d="M20.5128038,72.1658291 C17.5357122,72.1658291 0.29693423,30.3262982 0.29693423,30.3262982 C0.29693423,30.3262982 28.7636004,3.40519263 30.2663229,0.404522613 C31.7690453,-2.5678392 63.9216344,37.0919598 63.9216344,44.5370184 C63.9216344,51.9820771 23.4898953,72.1658291 20.5128038,72.1658291" id="path2976"></path>
                    </g>
                    <g id="g2978" transform="translate(933.443921, 0.210134)">
                        <path d="M161.27907,30.4857621 C122.746999,-10.7592965 60.3981949,-8.01340034 21.6392978,28.0795645 C-4.72922772,52.6227806 -7.93314534,88.0929648 18.1518476,116.033166 C22.5749551,120.760637 29.4931489,126.365662 38.0274781,129.366332 C40.3524449,130.158961 42.9325909,130.81005 45.6828565,131.149749 L46.5901606,131.262982 L46.3916878,132.168844 C41.0612762,157.136683 57.3360435,184.623953 66.9194431,194.871524 C105.479867,236.144891 168.027144,233.144221 206.559215,197.277722 C233.18292,172.479732 236.046598,137.179397 210.018312,109.324121 C205.595205,104.59665 198.705364,98.9633166 190.171035,95.9909548 C187.874421,95.198325 185.294275,94.5472362 182.572363,94.2075377 L181.665059,94.0943049 L181.863532,93.1884422 C187.279003,68.1356784 170.805763,40.6767169 161.27907,30.4857621" id="path2980"></path>
                    </g>
                </g>
                <g id="g2982" transform="translate(900.500000, 336.500000) scale(-1, 1) rotate(-180.000000) translate(-900.500000, -336.500000) translate(434.000000, 88.000000)">
                    <g id="g2984" transform="translate(744.690033, 0.208209)" fill="#FFE400">
                        <path d="M126.021057,24.4369806 C138.632052,37.9650177 150.081136,66.7794532 134.041083,81.7538842 C123.470518,91.6233956 113.183346,94.969954 103.066211,104.442416 C94.6210943,112.326681 94.592755,123.302258 101.082458,130.278982 C107.175411,136.830295 119.389657,144.430953 127.409683,136.943738 C138.376999,126.677177 139.255517,107.703893 150.024458,97.6642172 C157.846109,90.3471657 168.841764,97.0970039 174.736341,103.421432 C192.675129,122.649963 191.059787,145.083249 172.270821,162.6385 C141.012555,191.793264 91.5321089,193.32474 61.6057909,161.220467 C48.9947952,147.69243 37.7440866,118.67947 53.5857644,103.903563 C64.3547046,93.8355274 79.714614,90.9143789 87.0261576,78.3789651 C92.9207354,68.2258471 91.7588234,62.7805994 86.7427644,55.1799413 C81.6700268,47.4374798 68.2371909,41.2264942 60.2171644,48.7137097 C49.4482242,58.7817457 48.5697054,77.7550305 37.6023901,87.9932305 C29.7807388,95.2819213 18.7850841,88.5604438 12.862167,82.2360155 C-5.04828089,63.0074848 -3.23456465,40.3756742 15.3560268,23.0189474 C46.8126678,-6.33434072 96.0947388,-7.69565263 126.021057,24.4369806" id="path2986"></path>
                    </g>
                    <g id="g2988" transform="translate(618.094142, 323.647499)" fill="#000000">
                        <path d="M56.6786325,105.903186 C71.6701308,102.443184 87.0867188,92.2617058 94.6533162,80.1517019 C112.167014,52.1030044 71.8401667,-13.0698033 31.2299265,2.58528366 C0.821840171,14.3265989 -4.90270171,46.6861175 5.46948803,77.7977668 C14.5947479,105.165808 38.9665598,109.987121 56.6786325,105.903186" id="path2990"></path>
                    </g>
                    <g id="g2992" transform="translate(537.485384, 205.494830)" fill="#000000">
                        <path d="M135.471406,88.900554 C129.576829,54.9528382 96.4198286,-4.06570526 50.6801722,0.301837119 C26.8184679,2.5706903 -25.8926603,26.7056161 15.2276876,84.249405 C21.4056585,92.9277684 27.3569149,99.1954753 33.8466183,105.122854 C39.5144816,110.256135 45.9475064,115.417776 54.3076047,122.678106 C86.3877106,150.613361 148.139081,161.702381 135.471406,88.900554" id="path2994"></path>
                    </g>
                    <g id="g2996" transform="translate(641.598832, 346.579164)" fill="#FFE400">
                        <path d="M3.82602953,47.5660665 C-4.67576535,22.0414681 2.23902782,6.49982382 16.0119355,1.1963795 C32.5620962,-5.21313075 59.34275,32.6199961 51.6061167,45.0136066 C43.8694834,57.3788565 12.3278244,73.0906648 3.82602953,47.5660665" id="path2998"></path>
                    </g>
                    <g id="g3000" transform="translate(633.494463, 113.557011)" fill="#000000">
                        <path d="M92.4565657,2.20277008 C19.1144152,16.4681845 -7.69457793,76.8764006 2.4792366,129.173466 C15.4019648,195.764307 74.4044212,218.991692 127.115549,208.725131 C156.049991,202.372342 195.299944,172.39512 184.105914,114.794609 C182.292198,105.378869 176.255924,93.5241108 168.51929,84.3919767 C166.790592,82.3783695 164.353411,79.7691884 161.264425,77.1316465 L152.819309,69.984759 L154.321293,58.9808211 L154.491329,57.4777058 C155.313169,47.7499978 153.272738,36.6042565 148.568412,28.0393357 C143.127263,18.1698244 139.216437,12.1857241 133.548574,8.0734277 C122.269526,-0.179525762 108.156547,-0.860181717 92.4565657,2.20277008" id="path3002"></path>
                    </g>
                    <g id="g3004" transform="translate(653.457868, 133.658381)" fill="#FFE400">
                        <path d="M102.906915,168.856094 C58.4425281,177.506097 12.6745324,158.305927 2.35902129,105.214762 C-5.91605905,62.6737651 15.1117136,13.8650609 76.352976,1.95358172 C103.048612,-3.23641994 105.62749,8.16456731 110.898602,17.6937507 C116.141376,27.2229341 116.594805,46.1962188 105.995901,47.8978587 C95.3969965,49.571138 84.6280563,46.2529402 73.3773478,48.4367114 C56.1187042,51.8116305 37.9815418,88.7372161 57.0539016,85.021969 C67.7945025,82.9232798 87.1785948,71.3521285 111.153656,66.7009795 C127.703817,63.4678637 142.213547,87.8013141 144.310656,98.5500061 C152.982487,143.274775 123.537938,164.460191 102.906915,168.856094" id="path3006"></path>
                    </g>
                    <g id="g3008" transform="translate(716.619331, 236.343388)" fill="#462682">
                        <path d="M4.82602953,34.4871191 C-2.14544227,23.9936731 -0.501761927,2.77989584 13.6678962,0.964813296 C27.8375543,-0.878629917 54.1364398,13.8689158 43.5942141,30.2330194 C33.6187748,45.7746637 15.3965945,50.3690914 4.82602953,34.4871191" id="path3010"></path>
                    </g>
                    <g id="g3012" transform="translate(191.113110, 262.705829)" fill-rule="nonzero" fill="#000000">
                        <path d="M16.5826729,54.1055402 C14.9673319,56.658 9.8095763,67.3499706 9.8095763,67.3499706 C2.72474724,83.5155496 -0.477595493,101.184244 0.145869464,118.626053 C2.63972929,190.406895 60.3952558,224.496414 117.385621,222.511168 C148.473851,220.667725 194.355204,196.022307 192.173076,133.997533 C191.833005,124.014579 187.525428,110.685066 180.979046,99.8796532 C179.363705,97.2421114 176.983203,93.7821102 173.809199,90.2370271 L166.015887,81.530303 L169.671659,70.4696438 C169.983392,69.5337418 170.238446,68.7112825 170.408481,68.0306266 C172.902341,58.0476726 172.590609,46.1361934 169.133212,36.4935673 C165.137369,25.4045474 162.105062,18.5696271 156.918967,13.3229042 C146.773492,3.14142548 132.405458,0.0501130194 115.430208,0.645686981 C71.2208746,2.20552355 39.2257866,21.377333 20.4651592,47.6109479 C20.4651592,47.6109479 18.1980139,51.5530803 16.5826729,54.1055402" id="path3014"></path>
                    </g>
                    <g id="g3016" transform="translate(191.113110, 262.705829)" stroke="#000000" stroke-width="0.612000735">
                        <path d="M16.5826729,54.1055402 C14.9673319,56.658 9.8095763,67.3499706 9.8095763,67.3499706 C2.72474724,83.5155496 -0.477595493,101.184244 0.145869464,118.626053 C2.63972929,190.406895 60.3952558,224.496414 117.385621,222.511168 C148.473851,220.667725 194.355204,196.022307 192.173076,133.997533 C191.833005,124.014579 187.525428,110.685066 180.979046,99.8796532 C179.363705,97.2421114 176.983203,93.7821102 173.809199,90.2370271 L166.015887,81.530303 L169.671659,70.4696438 C169.983392,69.5337418 170.238446,68.7112825 170.408481,68.0306266 C172.902341,58.0476726 172.590609,46.1361934 169.133212,36.4935673 C165.137369,25.4045474 162.105062,18.5696271 156.918967,13.3229042 C146.773492,3.14142548 132.405458,0.0501130194 115.430208,0.645686981 C71.2208746,2.20552355 39.2257866,21.377333 20.4651592,47.6109479 C20.4651592,47.6109479 18.1980139,51.5530803 16.5826729,54.1055402 Z" id="path3018"></path>
                    </g>
                    <g id="g3020" transform="translate(0.220525, 281.106915)" fill-rule="nonzero" fill="#000000">
                        <path d="M85.9250971,3.81855956 C82.9778082,4.52757618 71.840457,8.63987258 71.840457,8.63987258 C55.5453501,15.3613501 40.9789416,25.8264355 29.3031433,38.7872593 C-18.7319977,92.1903911 -0.821549883,156.852707 41.5457279,195.054522 C65.1807176,215.332398 115.284629,229.48437 156.773388,183.369929 C163.461466,175.939434 169.639437,163.347299 172.388351,151.038771 C173.068495,148.00418 173.776977,143.863522 173.975353,139.098931 L174.400442,127.442698 L184.715954,122.025811 C185.566133,121.543679 186.302955,121.118269 186.92642,120.749581 C195.62659,115.332694 203.703295,106.540888 207.869175,97.2102288 C212.715198,86.4331762 215.265736,79.428092 215.180718,72.0543191 C214.954004,57.675462 206.763942,45.4520155 194.124607,34.0793889 C161.251,4.44249418 124.948336,-3.98062327 93.2366407,1.86167368 C93.2366407,1.86167368 88.872386,3.10954294 85.9250971,3.81855956" id="path3022"></path>
                    </g>
                    <g id="g3024" transform="translate(0.220525, 281.106915)" stroke="#000000" stroke-width="0.612000735">
                        <path d="M85.9250971,3.81855956 C82.9778082,4.52757618 71.840457,8.63987258 71.840457,8.63987258 C55.5453501,15.3613501 40.9789416,25.8264355 29.3031433,38.7872593 C-18.7319977,92.1903911 -0.821549883,156.852707 41.5457279,195.054522 C65.1807176,215.332398 115.284629,229.48437 156.773388,183.369929 C163.461466,175.939434 169.639437,163.347299 172.388351,151.038771 C173.068495,148.00418 173.776977,143.863522 173.975353,139.098931 L174.400442,127.442698 L184.715954,122.025811 C185.566133,121.543679 186.302955,121.118269 186.92642,120.749581 C195.62659,115.332694 203.703295,106.540888 207.869175,97.2102288 C212.715198,86.4331762 215.265736,79.428092 215.180718,72.0543191 C214.954004,57.675462 206.763942,45.4520155 194.124607,34.0793889 C161.251,4.44249418 124.948336,-3.98062327 93.2366407,1.86167368 C93.2366407,1.86167368 88.872386,3.10954294 85.9250971,3.81855956 Z" id="path3026"></path>
                    </g>
                    <g id="g3028" transform="translate(211.023719, 283.499346)" fill="#FFE400">
                        <path d="M96.3754468,181.522022 C47.7451801,183.223662 2.45895276,155.146604 0.418521989,97.1206837 C-1.19681904,50.6091934 29.2962852,2.42442382 96.2054109,0.0704886427 C125.423246,-0.950495291 126.245086,11.5565579 130.21259,22.5604958 C134.151755,33.5644338 131.48786,53.7572271 119.953758,53.7572271 C108.419656,53.7572271 97.5656981,48.4537828 85.2664348,48.8791928 C66.3924502,49.5314881 40.9720835,85.6346144 61.8298203,84.8972371 C73.5622972,84.5001878 96.0637143,75.4814964 122.277582,74.5739551 C140.358066,73.9500205 151.665453,102.197243 152.062203,113.910197 C153.762562,162.803983 118.990221,180.330874 96.3754468,181.522022" id="path3030"></path>
                    </g>
                    <g id="g3032" transform="translate(279.365624, 382.895491)" fill="#462682">
                        <path d="M0.907148407,25.7448753 C-3.31540971,13.0960188 14.8217527,0.191916343 28.4246245,0.645686981 C42.0274963,1.07109695 58.3226031,6.45962327 56.877298,24.1566781 C54.4684561,53.9353762 7.48186977,45.4271767 0.907148407,25.7448753" id="path3034"></path>
                    </g>
                </g>
                <g id="g3036" transform="translate(268.000000, 370.000000) scale(-1, 1) rotate(-180.000000) translate(-268.000000, -370.000000) translate(0.000000, 136.000000)">
                    <g id="g3038" transform="translate(218.796466, 158.762766)" fill="#000000">
                        <path d="M238.357767,17.8654971 C188.485689,-6.08471345 70.0961777,-23.9199766 18.3822335,101.464754 C-32.3682728,224.52807 35.1573869,270.786515 79.4755286,293.321228 C121.498421,314.723544 192.311104,316.110731 216.48206,283.441058 C224.586273,272.456801 225.153001,259.887187 224.047881,250.375047 C222.942761,240.862906 219.825756,231.350766 217.105461,223.763702 L206.706,195.283901 L232.633813,192.028257 C234.532352,191.773468 236.345882,191.546988 237.677693,191.320509 C247.48209,189.706842 260.318483,187.442047 272.389793,181.921608 C285.11284,176.08976 297.070804,166.66255 305.430044,151.233632 C340.397171,86.6869649 281.684134,38.6733041 238.357767,17.8654971" id="path3040"></path>
                    </g>
                    <g id="g3042" transform="translate(0.191095, 0.815043)" fill="#000000">
                        <path d="M136.764563,201.979532 C140.41996,185.729626 147.759089,169.08338 155.438256,159.68448 C174.168621,136.725117 189.810318,133.073135 206.75549,138.961602 C207.350555,139.584421 209.36244,141.537807 210.269205,143.576123 C212.252753,147.935854 213.726247,154.164041 215.029721,162.572094 C216.418205,171.433105 217.40998,180.605526 218.855136,188.758789 C219.93192,194.618947 221.462086,201.668123 224.380736,208.236029 C209.249094,193.797959 187.146696,184.285819 165.327662,188.107661 C152.264578,190.400766 143.196928,195.723035 136.764563,201.979532 M237.613838,225.221994 C250.478567,234.649205 266.375292,232.29948 279.863422,224.457626 C293.464898,216.587462 307.831457,201.922912 321.432933,187.513152 C345.858916,161.609556 336.111192,127.920725 325.995094,107.112918 C314.858886,84.1818655 297.148631,63.1475789 284.85063,51.965152 C279.126676,46.7561228 269.974016,37.5837018 257.846033,28.5245205 C245.179659,19.0406901 228.631197,9.13221053 208.56902,3.92318129 C166.2911,-7.11769591 114.690501,4.31952047 59.2644879,64.6196959 C-55.6113092,189.608088 25.430817,294.94938 63.7133039,332.261883 C88.3659786,356.240404 117.694161,357.74083 145.520513,348.14376 C171.590008,339.169509 197.262794,320.315088 219.421865,302.479825 C249.401784,278.359754 249.940176,247.643468 237.613838,225.221994" id="path3044"></path>
                    </g>
                    <g id="g3046" transform="translate(19.779516, 21.096899)" fill="#FFE400">
                        <path d="M147.819417,187.725146 C183.268264,181.496959 232.20524,231.209216 187.972107,266.766503 C143.738975,302.352099 95.7654364,333.209936 58.6164058,297.00152 C21.4390388,260.793105 -48.0985058,168.559316 53.969235,57.4994152 C156.036976,-53.5887953 229.456608,27.2927076 251.247306,47.1096667 C273.038003,66.9266257 315.967661,123.942848 287.744599,153.866456 C259.521537,183.761754 239.14766,202.106596 225.772875,183.280485 C212.398091,164.426064 221.494078,108.768719 194.857854,99.5113684 C168.249967,90.2823275 143.795648,98.9451696 120.701475,127.226801 C97.6073029,155.508433 83.8358087,219.57383 105.881534,225.150889 C127.927259,230.699637 112.370571,193.953333 147.819417,187.725146" id="path3048"></path>
                    </g>
                </g>
                <g id="g3050" transform="translate(663.500000, 303.500000) scale(-1, 1) rotate(-180.000000) translate(-663.500000, -303.500000) translate(240.000000, 23.000000)">
                    <g id="g3052" transform="translate(215.037561, 300.380706)" fill="#FFE400">
                        <path d="M34.4483771,159.839274 C-1.70648068,127.228856 -14.7970327,75.5176446 23.9929363,32.3209026 C55.1042481,-2.27622527 110.49825,-15.7574687 160.253682,29.1137857 C181.95793,48.6970656 173.88259,58.261653 169.094055,68.9331215 C164.305519,79.6329715 148.35318,92.2911495 140.079498,84.2591666 C131.777481,76.2555653 127.668975,64.8745577 118.516922,56.6155223 C104.491331,43.9573442 61.1395026,52.2731428 76.6384894,66.2652544 C85.3655241,74.1269479 107.80647,83.2941934 127.300626,100.862382 C140.731192,112.98131 129.255708,141.192586 121.407044,149.934108 C88.7089984,186.290893 51.5340976,174.711215 34.4483771,159.839274" id="path3054"></path>
                    </g>
                    <g id="g3056" transform="translate(252.177975, 391.289720)" fill="#462682">
                        <path d="M2.19255277,7.48133305 C7.54777857,-4.94979245 31.178775,-0.0114001266 41.9175611,10.9722656 C52.6280127,21.9559312 62.1200796,38.6159099 48.6895133,50.22397 C26.0218909,69.7788684 -6.13779849,26.7807973 2.19255277,7.48133305" id="path3058"></path>
                    </g>
                    <g id="g3060" transform="translate(755.357582, 227.418351)" fill="#FFE400">
                        <path d="M42.2909697,83.8384307 C73.3456125,110.886062 94.993192,103.081132 89.2979518,70.1868979 C83.5743771,37.2642824 54.701493,-1.90227737 29.3987595,0.538537228 C10.4712947,2.35495739 -13.6413887,14.3319779 10.4996292,48.1628034 C20.6433903,62.3819675 25.9136125,69.590885 42.2909697,83.8384307" id="path3062"></path>
                    </g>
                    <g id="g3064" transform="translate(562.663942, 221.805902)" fill-rule="nonzero" fill="#FFE400">
                        <path d="M7.42094783,137.989032 C9.9143863,147.127896 19.5197913,162.62423 19.5197913,162.62423 C33.0070267,183.257628 42.1874138,193.730426 45.0208666,206.13317 C48.1659992,219.869847 47.5709741,225.91512 47.5709741,225.91512 C48.0243266,235.281037 48.3360064,246.633663 49.2427113,254.069633 C50.4044269,266.387232 55.3346348,286.140802 55.3346348,286.140802 C60.5198534,308.250041 69.0485464,318.410641 69.0485464,318.410641 C76.5855309,331.182345 88.5143672,338.930513 104.665048,338.930513 C128.551055,338.930513 147.110171,320.113535 147.110171,296.869033 C147.393517,290.738615 146.090128,283.614842 141.499935,275.327425 C129.004408,252.593792 124.980905,248.166267 124.329211,247.172913 C105.118401,216.350533 105.968436,219.046782 100.443204,201.847553 C98.1197722,195.404938 96.5897077,189.785388 97.8364269,184.222601 C99.9048475,174.77154 107.810181,171.081937 113.788766,170.741358 C116.197201,170.571069 119.370668,170.996792 122.940819,171.763094 C124.102534,172.018528 125.377588,172.359107 126.709311,172.501015 C147.705196,177.269118 184.341741,172.160436 193.012107,139.975741 C193.833808,137.194348 194.825517,133.164166 195.562214,128.083866 L195.703887,125.07542 C197.375624,113.438978 196.667261,93.4867378 188.33691,70.440907 C186.636838,66.7513035 174.679667,41.1795134 164.677579,31.7852154 L164.025885,31.1892025 C164.025885,31.1892025 160.824083,27.3293096 156.148886,23.2991274 C151.048671,18.9283664 143.59669,13.5074874 134.189626,9.30701582 C86.2759395,-12.433263 23.9683122,5.04978106 8.32765273,54.0079808 C-9.4664309,98.9643799 7.42094783,137.989032 7.42094783,137.989032" id="path3066"></path>
                    </g>
                    <g id="g3068" transform="translate(632.461275, 279.633353)" fill="#462682">
                        <path d="M75.8538929,19.2377136 C62.9333481,5.75647015 34.117133,-8.77489116 15.2180028,9.33254735 C-3.65279291,27.4116043 -5.83455157,69.1608865 14.1129562,73.5600291 C34.060464,77.9875533 114.417186,59.4543913 75.8538929,19.2377136" id="path3070"></path>
                    </g>
                    <g id="g3072" transform="translate(0.666064, 159.949694)" fill="#FFE400">
                        <path d="M68.0113003,254.127821 C28.7396444,234.090436 -28.099419,197.478217 16.754139,88.4078627 C61.6360315,-20.6341103 163.073642,-6.27303839 208.323883,15.5240036 C251.675711,36.3844539 290.919033,74.358988 266.069652,120.337123 C242.46699,164.044734 181.689427,137.791786 167.805508,173.098453 C161.713585,188.509643 193.334918,230.571122 178.685967,250.438218 C164.037016,270.276932 107.282956,274.165206 68.0113003,254.127821" id="path3074"></path>
                    </g>
                    <g id="g3076" transform="translate(58.313856, 309.971428)" fill="#462682">
                        <path d="M53.0548586,7.48133305 C69.602223,26.5537448 65.8337308,66.0608834 45.2628634,71.4249992 C15.8516233,79.0596402 -6.107636,37.4806473 1.9677045,23.8858777 C10.043045,10.3194896 36.5074942,-11.5910787 53.0548586,7.48133305" id="path3078"></path>
                    </g>
                    <g id="g3080" transform="translate(107.031373, 209.019882)" fill="#462682">
                        <path d="M79.7751892,33.5566336 C73.8249383,17.0669443 54.6707973,-6.40461 31.6064914,1.882807 C8.54218558,10.1986056 -9.22356352,45.1079306 6.19041975,56.5173198 C21.604403,67.9267089 97.5126037,82.7418859 79.7751892,33.5566336" id="path3082"></path>
                    </g>
                    <g id="g3084" transform="translate(323.770004, 31.496696)" fill-rule="nonzero" fill="#000000">
                        <path d="M0,24.7690361 L0,0.162219152 L15.9523393,0.162219152 C15.9523393,0.162219152 16.2640191,0.162219152 16.8023751,0.190600717 C17.3407312,0.190600717 18.1057634,0.218982282 19.0124683,0.304126977 C20.7408746,0.474416368 23.0359713,0.786613584 25.2460645,1.55291584 C27.2294815,2.20569184 29.1845639,3.22742818 30.6862939,4.73165113 C31.2529845,5.29928243 31.7346714,5.8952953 32.1030203,6.49130816 C33.3780741,8.47801772 33.6897539,10.4931088 33.7464229,11.6283714 C33.7747575,12.110858 33.7747575,12.3946737 33.7747575,12.3946737 C33.7747575,12.3946737 33.803092,12.6217262 33.7747575,12.9906866 C33.7747575,13.4731732 33.7180884,14.4097648 33.4630777,15.374738 C33.1513978,16.5667638 32.5847073,17.9006973 31.5929988,19.1494862 C31.3946571,19.3765387 31.1963154,19.6319728 30.9696392,19.8306437 C30.5446213,20.2847488 30.0629343,20.7104723 29.5529128,21.0794326 C28.6745424,21.7322086 27.6828339,22.2714583 26.5777873,22.7539449 C25.1610609,23.3783394 23.5459928,23.8324444 21.7892521,24.1730232 C20.8825472,24.3433126 19.9191732,24.4852204 18.9557993,24.5703651 C18.3324397,24.6271282 17.7374146,24.6555098 17.114055,24.7122729 C16.5756989,24.7406545 15.9806738,24.7690361 15.4139833,24.7690361 C9.77541219,24.7690361 0,24.7690361 0,24.7690361" id="path3086"></path>
                    </g>
                    <g id="g3088" transform="translate(323.770004, 70.218378)" fill-rule="nonzero" fill="#000000">
                        <path d="M0,23.4627716 L0,0.133125079 L7.73532616,0.133125079 C7.73532616,0.133125079 8.24534767,0.133125079 8.92537634,0.161506644 C9.46373238,0.161506644 10.087092,0.218269774 10.6537826,0.218269774 C12.2405161,0.3601776 14.4506093,0.58723012 16.6607025,1.18324299 C17.0857204,1.29676925 17.5107384,1.43867707 17.9357563,1.60896646 C19.6641625,2.20497933 21.3075651,3.11318941 22.5826189,4.36197827 C23.6309964,5.38371462 24.2826906,6.49059565 24.736043,7.59747669 C25.274399,8.93141025 25.4727407,10.2085807 25.5577443,11.1167908 C25.6144134,11.9114746 25.6144134,12.4223428 25.6144134,12.4223428 C25.6144134,12.4223428 25.6427479,12.8196847 25.6144134,13.4156975 C25.5577443,14.4374339 25.3310681,16.0835646 24.5377013,17.6729323 C24.1410179,18.4392345 23.6309964,19.1771552 22.8942987,19.8866944 C22.0442628,20.7381413 20.9958853,21.4192989 19.8625042,21.9017855 C17.6807455,22.8667587 15.187307,23.235719 13.090552,23.3776269 C12.1838471,23.4627716 11.3621458,23.4627716 10.6537826,23.4627716 L0,23.4627716 Z" id="path3090"></path>
                    </g>
                    <path d="M272.802138,125.317796 L405.66274,125.317796 L405.66274,0.0699493778 L272.802138,0.0699493778 L272.802138,125.317796 Z M307.653607,107.777989 L307.653607,17.581375 L341.541703,17.581375 C341.541703,17.581375 358.060733,17.12727 367.184451,26.2661339 C374.636432,33.702104 374.098076,42.3017182 374.098076,42.3017182 C374.098076,42.3017182 374.636432,51.2986743 367.751141,58.1953946 C361.885894,64.0703786 354.405579,65.6313647 354.405579,65.6313647 C354.405579,65.6313647 357.777387,67.2207323 360.384164,69.8034548 C361.602549,71.0238621 365.909397,74.940518 365.909397,84.4483423 C365.909397,94.0129298 359.562463,99.5189534 359.562463,99.5189534 C359.562463,99.5189534 352.592169,107.777989 336.866506,107.777989 L307.653607,107.777989 Z" id="path3092" fill="#000000" fill-rule="nonzero"></path>
                </g>
            </g>
        </g>
    </g>
</svg>
