<svg height="34" viewBox="0 0 34 34" width="34" xmlns="http://www.w3.org/2000/svg"><g fill="none" fill-rule="evenodd"><g fill="#000" transform="translate(1)"><path d="m7 19.6v6h6l.7-.6-6-6z"/><path d="m26 .6-16.7 16.8 6 6 10.7-10.8v18h-24v-24h12v-2h-14v28h28v-22l4-4z"/></g><path d="m0 0v32l8-8h24v-24zm4 10h18v4h-18zm24 10h-24v-4h24zm0-12h-24v-4h24z" fill="#000" transform="translate(1 1)"/><g transform="translate(0 4)"><path d="m4.1 10.4v5.9h1.9c-5-19.3.4 0 .4-.4v-5.9h-1.9c-3.5-13-.4 0-.4.4z"/><g fill="#000"><path d="m6.7 3.5c-5.7-6.5-.4 0-.4.4v3.7h-5c7.1-10.6-.4 0-.4.4v10.7h8.2c13.3-21.7.4 0 .4-.4v-14.8zm-.3 12.4c0 .4-.4.4-.4.4h-1.9v-5.9c0-.4.4-.4.4-.4h1.9z"/><path d="m10.5 8v10.7h2.8c9.1-21.7.4 0 .4-.4v-10.7h-2.8c-9.9-10.6-.4 0-.4.4z"/><path d="m10.9 3.5c-9.9-6.5-.4 0-.4.4v2h2.8c-8.3-8.9.4 0 .4-.4v-2z"/><path d="m24.8 7.6c-23.8-10.6-.4 0-.4.4v10.7h5.4v1.4h-5c-21-23.1-.4 0-.4.4v2h8.2c-27.6-25.5.4 0 .4-.4v-14.5zm5 8.3c0 .4-.4.4-.4.4h-1.9v-5.9c0-.4.4-.4.4-.4h1.9z"/><path d="m15.1 7.6c-14.1-10.6-.4 0-.4.4v10.7h5.4v1.4h-5c-11.3-23.1-.4 0-.4.4v2h8.3c-22-25.5.4 0 .4-.4v-14.5zm5.1 8.3c0 .4-.4.4-.4.4h-1.9v-5.9c0-.4.4-.4.4-.4h1.9z"/></g></g><g fill="#000"><g transform="translate(1 4)"><path d="m13 0h19v6h-19z"/><path d="m17 10h15v6h-15z"/><path d="m13 20h19v6h-19z"/><path d="m14 11h-5v-5h-4v5h-5v4h5v5h4v-5h5z"/></g><path d="m32 13h-13v-13h-6v13h-13v6h13v13h6v-13h13z" transform="translate(1 1)"/><g transform="translate(1 3)"><path d="m14 0v6h6v8h6l6 6v-20zm16 12h-8v-2h8zm0-4h-8v-2h8zm0-4h-14v-2h14z"/><path d="m0 22v6l6-6h12v-14h-18zm2-12h14v2h-14zm0 4h10v2h-10zm0 4h12v2h-12z"/></g><g transform="translate(1 1)"><path d="m32 14.2h-4.2v-4.2h-2.2v4.2h-4.2v2.1h4.2v4.2h2.2v-4.2h4.2z"/><path d="m18.6 1.7h-2.5c.9.8 2.9 2.3 2.9 5.5 0 3.1-1.8 4.6-3.6 6-.6.5-1.2 1.1-1.2 2.1 0 .9.6 1.4 1.1 1.8l1.5 1.2c1.9 1.6 3.6 3 3.6 5.9 0 3.9-4 8-11.4 8-6.1-.2-9-3.1-9-6.2 0-1.5.8-3.6 3.3-5.1 2.7-1.6 6.2-1.8 8.2-1.9-.6-.8-1.3-1.5-1.3-2.8 0-.7.2-1.1.4-1.6-.5 0-.9.1-1.4.1-4.5 0-7.1-3.3-7.1-6.6 0-1.9.6-4.2 2.4-5.8 2.5-2.1 5.6-2.3 7.9-2.3h8.9zm-11.2 19.1c-.9.3-3.7 1.3-3.7 4.3s3 5.1 7.5 5.1c4.1 0 6.3-1.9 6.3-4.5 0-2.1-1.4-3.3-4.7-5.5h-1c-.3-.1-2.6 0-4.4.6zm2.4-19.3c-1.1 0-2.3.4-3 1.3s-.9 2.1-.9 3.2c0 2.8 1.7 7.5 5.3 7.5 1.1 0 2.2-.6 2.9-1.3 1-1 1.1-2.2 1.1-3 0-3-1.8-7.7-5.4-7.7z"/></g><g transform="translate(1 1)"><path d="m7.3 31.5v-20.9h-6.9v20.9zm-3.5-23.8c2.4 0 3.9-1.6 3.9-3.6s-1.5-3.6-3.8-3.6c-2.4 0-3.9 1.6-3.9 3.6s1.5 3.6 3.8 3.6z"/><path d="m11.1 31.5h6.9v-11.7c0-.6 0-1.3.2-1.7.5-1.2 1.6-2.5 3.5-2.5 2.5 0 3.5 1.9 3.5 4.7v11.2h6.8v-12c0-6.4-3.4-9.4-7.9-9.4-3.7 0-5.3 2.1-6.2 3.5v-3h-6.9c.2 1.9.1 20.9.1 20.9z"/></g><path d="m30 6v-6h-28v6h-2v24h12l2-5h11l2 5h5v-24zm-24 14c-1.1 0-2-.9-2-2s.9-2 2-2 2 .9 2 2-.9 2-2 2zm0-6c-1.1 0-2-.9-2-2s.9-2 2-2 2 .9 2 2-.9 2-2 2zm13.5 9c-3.6 0-6.5-2.9-6.5-6.5s2.9-6.5 6.5-6.5 6.5 2.9 6.5 6.5-2.9 6.5-6.5 6.5zm8.5-17h-24v-4h24z" transform="translate(1 2)"/><path d="m16 0c-8.8 0-16 7.2-16 16 0 6.6 3.9 12.2 9.6 14.7 0-1.1 0-2.5.3-3.7.3-1.3 2.1-8.7 2.1-8.7s-.5-1-.5-2.5c0-2.4 1.4-4.1 3.1-4.1 1.5 0 2.2 1.1 2.2 2.4 0 1.5-.9 3.7-1.4 5.7-.4 1.7.9 3.1 2.5 3.1 3 0 5.1-3.9 5.1-8.5 0-3.5-2.4-6.1-6.7-6.1-4.9 0-7.9 3.6-7.9 7.7 0 1.4.4 2.4 1.1 3.1.3.4.3.5.2.9-.1.3-.3 1-.3 1.3-.1.4-.4.6-.8.4-2.2-.9-3.3-3.4-3.3-6.1 0-4.5 3.8-10 11.4-10 6.1 0 10.1 4.4 10.1 9.2 0 6.3-3.5 11-8.6 11-1.7 0-3.4-.9-3.9-2 0 0-.9 3.7-1.1 4.4-.3 1.2-1 2.5-1.6 3.4 1.4.4 3 .7 4.5.7 8.8 0 16-7.2 16-16s-7.3-16.3-16.1-16.3z" transform="translate(1 1)"/><path d="m16 28c-6.6 0-12-5.4-12-12s5.4-12 12-12c3.1 0 6 1.2 8.1 3.2l-8.7 10.4-5.4-3.8-3 3.5 8.8 6.8 11-13.1 2.8-3.3c-2.8-4.6-7.8-7.7-13.6-7.7-8.8 0-16 7.2-16 16s7.2 16 16 16 16-7.2 16-16h-4c0 6.6-5.4 12-12 12" transform="translate(1 1)"/><path d="m5.8 22.2c1.6 0 3-.7 4-1.8l9 4.8c-.1.4-.2.8-.2 1.3 0 3 2.5 5.5 5.5 5.5s5.5-2.4 5.5-5.5-2.5-5.5-5.5-5.5c-1.6 0-3 .7-4 1.8l-9.5-5.2-.1-2.8 9.7-5.5c1 1 2.3 1.5 3.8 1.5 3 0 5.5-2.5 5.5-5.5s-2.3-5.3-5.3-5.3-5.5 2.4-5.5 5.5c0 .6.1 1.1.2 1.6l-9.3 5.7c-1-.9-2.3-1.5-3.8-1.5-3 0-5.5 2.4-5.5 5.5.1 2.9 2.5 5.4 5.5 5.4z" transform="translate(2 1)"/><g transform="translate(2 2)"><path d="m0 0v30h30v-30zm19.8 22.6-1.3-2.6h-7l-1.4 2.6c-2.4-1.6-4.1-4.4-4.1-7.6 0-5 4-9 9-9s9 4 9 9c0 3.2-1.7 6-4.2 7.6z"/><circle cx="15" cy="15" r="3.5"/></g><path d="m0 0v30h30v-30zm21.1 21.6-.5-1.1c1.4-1.4 2.3-3.4 2.3-5.6 0-4.3-3.5-7.9-7.9-7.9s-7.9 3.7-7.9 8c0 2.7 1.4 5.2 3.5 6.6l.8-1.6h7l1.3 2.6c-1.3.9-2.9 1.4-4.7 1.4-5 0-9-4-9-9s4-9 9-9 9 4 9 9c0 2.6-1.1 5-2.9 6.6zm-2.6-6.6c0 1.9-1.6 3.5-3.5 3.5s-3.5-1.6-3.5-3.5 1.6-3.5 3.5-3.5 3.5 1.6 3.5 3.5z" transform="translate(2 2)"/><path d="m16 0c-8.8 0-16 7.2-16 16s7.2 16 16 16 16-7.2 16-16-7.2-16-16-16zm0 13c-.8 0-1.5.7-1.6 1.5v3.1c-.1 2.2-1.9 3.9-4.1 3.9s-4-1.7-4.1-3.9v-1.6h2.5v1.6c0 .8.7 1.5 1.5 1.5s1.5-.6 1.5-1.5v-3.1c.1-2.2 1.9-3.9 4.1-3.9s4 1.7 4 3.9l-1.5.4-1-.4c.2-.9-.5-1.5-1.3-1.5zm9.7 4.6c-.1 2.2-1.9 3.9-4.1 3.9s-4-1.7-4.1-3.9v-1.6l1 .4 1.5-.4v1.6c0 .8.7 1.5 1.5 1.5s1.5-.6 1.5-1.5v-1.6h2.5v1.6z" transform="translate(1 1)"/><g transform="translate(1 1)"><path d="m22 6c2.2 0 4.2.9 5.7 2.3l1.4-1.4c-1.8-1.8-4.3-2.9-7.1-2.9s-5.3 1.1-7.1 2.9l1.4 1.4c1.5-1.4 3.5-2.3 5.7-2.3"/><path d="m22 2c3.3 0 6.3 1.3 8.5 3.5l1.5-1.4c-2.6-2.5-6.1-4.1-10-4.1s-7.4 1.6-9.9 4.1l1.4 1.4c2.2-2.2 5.2-3.5 8.5-3.5"/><path d="m14 12h-5v-5h-4v5h-5v4h5v5h4v-5h5z"/><path d="m26 14c0 2.2-1.8 4-4 4s-4-1.8-4-4 1.8-4 4-4 4 1.8 4 4"/><path d="m16 19h12l-3 13h-6z"/></g><g transform="translate(4 1)"><path d="m22 4v3h1v22h-20v-22h3v2h14v-6h-4c0-1.7-1.3-3-3-3s-3 1.3-3 3h-4v1h-6v28h26v-28z"/><path d="m8.5 16.2-2 2.3 5.3 4.5 7.5-9-2.3-1.9-5.5 6.6z"/></g><path d="m11 0v8.2h6.3v4.8h-6.4v8.3c0 1.9.2 2.8.4 3.3s.5.9 1 1.2 1 .4 1.8.4c.4 0 1.4-.1 2.5-.6l1.5 4.6c-.6.5-1.5 1.1-2.9 1.5-1.2.2-2 .3-3.2.3-1.4 0-2.3-.2-3.4-.6s-1.8-.9-2.6-1.6-1.3-1.4-1.7-2.2c-.5-.8-1-2.2-1.1-3.8v-10.8h-3.2v-4.2c1.2-.4 2.1-1 3-1.8 1.2-1.1 1.7-2 2.1-2.9.5-1 .9-2.5 1.1-4.1z" transform="translate(8 1)"/><path d="m33 3.1c-1.2.5-2.4.9-3.8 1 1.4-.8 2.4-2.1 2.9-3.6-1.3.8-2.7 1.3-4.2 1.6-1.2-1.3-2.9-2.1-4.7-2.1-3.6 0-6.6 2.9-6.6 6.6 0 .5.1 1 .2 1.5-5.5-.3-10.3-2.9-13.6-6.9-.6 1-.9 2.1-.9 3.3 0 2.3 1.2 4.3 2.9 5.5-1.1 0-2.1-.3-3-.8v.1c0 3.2 2.3 5.8 5.3 6.4-.6.1-1.1.2-1.7.2-.4 0-.8 0-1.2-.1.8 2.6 3.3 4.5 6.1 4.6-2.2 1.8-5.1 2.8-8.2 2.8-.5 0-1.1 0-1.6-.1 3 1.8 6.5 2.9 10.2 2.9 12.1 0 18.7-10 18.7-18.7v-.9c1.2-.9 2.3-2 3.2-3.3z" transform="translate(0 4)"/></g></g></svg>