<svg enable-background="new 0 0 91 22.6" viewBox="0 0 91 22.6" xmlns="http://www.w3.org/2000/svg"><path d="m17.6 0h3.1v22.3h-2.8l-14.9-17.2v17.2h-3v-22.3h2.6l15 17.3zm8.8 0h12.7v2.8h-9.5v6.8h9.2v2.9h-9.2v6.9h9.8v2.9h-13v-22.3m46.8 0h3.2l-9.1 22.4h-.7l-7.3-18.1-7.3 18.1h-.7l-9-22.4h3.2l6.2 15.4 6.1-15.4h3.1l6.2 15.4zm11.8 13-2.4-1.5c-1.5-.9-2.6-1.8-3.2-2.7s-1-1.9-1-3.1c0-1.8.6-3.2 1.8-4.3 1.2-1.1 2.8-1.7 4.8-1.7 1.9 0 3.6.5 5.1 1.6v3.6c-1.6-1.5-3.3-2.3-5.2-2.3-1 0-1.9.2-2.6.7s-1 1.1-1 1.9c0 .7.2 1.3.7 1.9s1.3 1.2 2.4 1.8l2.4 1.4c2.7 1.6 4.1 3.7 4.1 6.2 0 1.8-.6 3.2-1.8 4.4-1.2 1.1-2.8 1.7-4.7 1.7-2.2 0-4.2-.7-6-2v-4.1c1.7 2.2 3.7 3.3 6 3.3 1 0 1.8-.3 2.5-.8.7-.6 1-1.3 1-2.1.1-1.4-.9-2.7-2.9-3.9" fill="#272724"/></svg>