<svg viewBox="0 0 120 30" xmlns="http://www.w3.org/2000/svg"><path d="m8.5 17.4-3.1-1.9c-2-1.2-3.4-2.4-4.2-3.6s-1.2-2.6-1.2-4.1c0-2.3.8-4.2 2.4-5.6 1.5-1.4 3.6-2.2 6.1-2.2 2.4 0 4.6.7 6.6 2.1v4.8c-2.1-2-4.3-3-6.7-3-1.4-.1-2.5.2-3.3.9-.9.6-1.3 1.4-1.3 2.4 0 .9.3 1.7 1 2.5.6.8 1.7 1.6 3.1 2.4l3.1 1.9c3.5 2.1 5.3 4.8 5.3 8.1 0 2.3-.8 4.2-2.3 5.7s-3.5 2.2-6 2.2c-2.8 0-5.4-.9-7.7-2.7v-5.3c2.2 2.9 4.8 4.3 7.7 4.3 1.3 0 2.4-.4 3.2-1.1.9-.7 1.3-1.6 1.3-2.7-.2-1.8-1.4-3.5-4-5.1zm12 12.3v-29.3h9.1c2.7 0 4.9.8 6.6 2.3 1.6 1.5 2.4 3.5 2.4 6.1 0 1.7-.4 3.2-1.3 4.5-.8 1.3-2 2.3-3.4 2.9-1.5.6-3.5.9-6.2.9h-3v12.7h-4.2zm8.4-25.6h-4.3v9.1h4.5c1.7 0 3-.4 3.9-1.2s1.4-2 1.4-3.4c-.1-3-1.9-4.5-5.5-4.5zm27.4-4.1c4.4 0 8.1 1.4 11.1 4.3s4.4 6.4 4.4 10.8c0 4.3-1.5 7.9-4.5 10.7s-6.7 4.2-11.3 4.2c-4.3 0-7.9-1.4-10.8-4.2s-4.3-6.4-4.3-10.6c0-4.4 1.5-8 4.4-10.8 2.9-3 6.5-4.4 11-4.4zm.1 4c-3.3 0-6 1-8.1 3.1s-3.2 4.8-3.2 8 1.1 5.8 3.2 7.9 4.8 3.1 8 3.1 5.9-1.1 8-3.2 3.2-4.8 3.2-8c0-3.1-1.1-5.7-3.2-7.8s-4.7-3.1-7.9-3.1zm20.5 25.7v-29.3h7.2c2.9 0 5.2.7 6.9 2.2s2.6 3.4 2.6 5.9c0 1.7-.4 3.2-1.3 4.4-.8 1.2-2 2.2-3.6 2.8.9.6 1.8 1.5 2.7 2.5.9 1.1 2.1 2.9 3.7 5.5 1 1.7 1.8 2.9 2.4 3.7l1.5 2.1h-4.9l-1.3-1.9c0-.1-.1-.2-.2-.4l-.8-1.2-1.3-2.1-1.4-2.3c-.8-1.2-1.6-2.2-2.3-2.9s-1.3-1.2-1.9-1.5-1.5-.5-2.9-.5h-1.1v12.7h-4zm5.4-25.7h-1.2v9.2h1.6c2.1 0 3.5-.2 4.3-.5.8-.4 1.4-.9 1.8-1.6s.6-1.6.6-2.5-.2-1.8-.7-2.5-1.2-1.3-2-1.6c-1-.4-2.4-.5-4.4-.5zm13.7-3.6h24v3.7h-10v25.6h-4.1v-25.6h-9.9z"/></svg>