<svg height="34" viewBox="0 0 57 34" width="57" xmlns="http://www.w3.org/2000/svg"><g fill="none" fill-rule="evenodd"><g fill="#000"><g transform="translate(2)"><path d="m16 18.4v-6.4h-2v7.6l6.6 3.8 1-1.8z"/><path d="m28.2 10c1.7-2.9.7-6.5-2.2-8.2-2.9-1.7-6.5-.7-8.2 2.2z"/><path d="m1.8 10c-1.7-2.9-.7-6.5 2.2-8.2 2.9-1.7 6.5-.7 8.2 2.2z"/><path d="m28 18.5c0-7.2-5.8-13.5-13-13.5s-13 6.3-13 13.5c0 3.4 1.3 6.7 3.4 9l-2.4 2.5 2.8 2.9 2.7-2.7c1.9 1.1 4.1 1.7 6.5 1.7 2.3 0 4.5-.6 6.5-1.7l2.7 2.7 2.8-2.8-2.4-2.7c2.1-2.2 3.4-5.5 3.4-8.9zm-22.5.5c0-2.5 1-5.2 2.8-7s4.2-3 6.7-3c5.2 0 9.5 4.5 9.5 9.8s-4.3 9.6-9.5 9.6-9.5-4.2-9.5-9.4z"/></g><path d="m16 0-16 28h32zm2 25h-4v-4h4zm-4-6v-10h4v10z" transform="translate(1 3)"/><g transform="translate(3 1)"><path d="m0 0v32h3v-32z"/><path d="m28 0-25 16 25 16v-8l-13.3-8 13.3-8z"/></g><g transform="translate(1 1)"><path d="m24 13h4v4h-4z"/><path d="m22 0h2v5h-2z"/><path d="m8 0h2v5h-2z"/><path d="m19 13h4v4h-4z"/><path d="m14 13h4v4h-4z"/><path d="m9 13h4v4h-4z"/><path d="m24 18h4v4h-4z"/><path d="m19 18h4v4h-4z"/><path d="m14 18h4v4h-4z"/><path d="m9 18h4v4h-4z"/><path d="m4 18h4v4h-4z"/><path d="m19 23h4v4h-4z"/><path d="m14 23h4v4h-4z"/><path d="m9 23h4v4h-4z"/><path d="m4 23h4v4h-4z"/><path d="m2 9h30v-7h-7v4h-4v-4h-10v4h-4v-4h-7v7z"/><path d="m30 11v19h-28v-19h-2v21h32v-21z"/></g><g transform="translate(1 1)"><path d="m8 0h24v8h-24z"/><path d="m16 12h16v8h-16z"/><path d="m8 24h24v8h-24z"/><path d="m0 23 12-7-12-7z"/></g><g transform="translate(3 1)"><path d="m14.4 18.4v-6.4h-2v7.6l6.6 3.8 1-1.8z"/><path d="m22.982 4.875 4.242 4.242-2.828 2.83-4.243-4.244z"/><path d="m13 6c-7.2 0-13 5.8-13 13s5.8 13 13 13 13-5.8 13-13-5.8-13-13-13zm0 22.5c-5.2 0-9.5-4.3-9.5-9.5s4.3-9.5 9.5-9.5 9.5 4.3 9.5 9.5-4.3 9.5-9.5 9.5z"/><path d="m13 6c1.7 0 3-1.3 3-3s-1.3-3-3-3-3 1.3-3 3 1.3 3 3 3zm0-5c1.1 0 2 .9 2 2s-.9 2-2 2-2-.9-2-2 .9-2 2-2z"/></g><path d="m30 0h-9l2 2h7v28h-28v-28h7.2l8.6 8.6-8.4 8.4 7.8 9.5v-9.5l8.2-8.1-10.9-10.9h-14.5v32h32v-32z" transform="translate(1 1)"/><path d="m16 26 16-26h-7.2l-8.8 15.3-8.8-15.3h-7.2z" transform="translate(1 4)"/><g transform="translate(1 1)"><path d="m28.2 12.2-9.2 9.2v-21.4h-6v21.4l-9.2-9.2-3.8 3.8 14 14h-12v-6h-2v8h16l16-16z"/><path d="m30 30h-8l-2 2h12v-8h-2z"/></g><g transform="translate(1 1)"><path d="m17 15.4v-9.4h-2v10.6l8.8 5.1 1-1.8z"/><path d="m16 4c6.6 0 12 5.4 12 12s-5.4 12-12 12-12-5.4-12-12 5.4-12 12-12zm0-4c-8.8 0-16 7.2-16 16s7.2 16 16 16 16-7.2 16-16-7.2-16-16-16z"/></g><path d="m16 16.4 16-15v-1.4h-32v26h32v-21l-4 4v13h-24v-16.8zm0-2.8-10.2-9.6h20.4z" transform="translate(1 4)"/><g transform="translate(1 4)"><path d="m11 26v-7l-5-6 5-6v-7l-11 13z"/><path d="m25 0v7l5 6-5 6v7l11-13z"/><path d="m13 22h2l8-18h-2z"/></g><g transform="translate(1 6)"><path d="m10 22v-6l-4.5-5 4.5-5v-6l-10 11z"/><path d="m22 0v6l4.5 5-4.5 5v6l10-11z"/><path d="m12 19h2l6-16h-2z"/></g><g transform="translate(1 1)"><path d="m10 6.2v-6.2l-10 10 10 10v-6.2l-3.8-3.8z"/><path d="m22 13.8v6.2l10-10-10-10v6.2l3.8 3.8z"/><path d="m11.403 13.183 7.78-7.778 1.413 1.414-7.778 7.777z"/></g><g transform="translate(1 1)"><path d="m16 0c-.3 0-.7 0-1 .1v4c.3-.1.7-.1 1-.1 6.6 0 12 5.4 12 12s-5.4 12-12 12-12-5.4-12-12h-4c0 8.8 7.2 16 16 16s16-7.2 16-16-7.2-16-16-16z"/><path d="m23.8 21.7 1-1.8-7.8-4.5v-9.4h-2v10.6z"/></g><path d="m6 0v22.5l-6 6 3.5 3.5 18.5-18.5v7.5h5v-16h-16v5h7.5l-10.5 10.5v-18.5h22v22h-14.2l-2 2h18.2v-26z" transform="translate(1 1)"/><path d="m12 0v5h11.5l-5 5h-18.5v22h22v-14.5l-2 2v10.5h-18v-18h14.5l-7.8 7.7 3.6 3.6 14.7-14.8v11.5h5v-20z" transform="translate(1 1)"/><g transform="translate(1 1)"><path d="m0 0h8v8h-8z"/><path d="m0 12h8v8h-8z"/><path d="m0 24h8v8h-8z"/><path d="m12 0h8v8h-8z"/><path d="m12 12h8v8h-8z"/><path d="m12 24h8v8h-8z"/><path d="m24 0h8v8h-8z"/><path d="m24 12h8v8h-8z"/><path d="m24 24h8v8h-8z"/></g><path d="m16 0c-8.8 0-16 7.2-16 16s7.2 16 16 16 16-7.2 16-16-7.2-16-16-16zm2 26h-4v-4h4zm2.6-10c-1.2.9-2.6 1.6-2.6 3.2v.8h-4v-1c0-2.4 1.4-3.4 2.5-4.3 1.1-.8 2.5-1.5 2.5-2.9 0-1.7-1.4-2.4-2.8-2.4-2 0-3.7 1.6-3.7 3.6h-3.5c.1-4 3.1-6.8 7-6.8 5.1 0 7.3 3.1 7.3 5.2 0 2.7-1.5 3.7-2.7 4.6z" transform="translate(1 1)"/><g transform="translate(1 1)"><path d="m16 5.4-12 12v14.5h9v-9.9h6v9.9h9v-14.5z"/><path d="m28 12v-8h-4v4l-6.6-6.6-1.4-1.4-1.4 1.4-14.6 14.6v2.8l16-16 16 16v-2.8z"/></g><path d="m16 0c-8.8 0-16 7.2-16 16s7.2 16 16 16 16-7.2 16-16-7.2-16-16-16zm2 25h-4v-12h4zm0-14h-4v-4h4z" transform="translate(1 1)"/><g transform="translate(1 5)"><path d="m10 22h-8v-6h2v-2h-4v10h12v-6h-2z"/><path d="m22 22h8v-6h-2v-2h4v10h-12v-6h2z"/><path d="m6 16h20v-16h-20zm16-4h-12v-8h12z"/></g><g><path d="m19.5 5.6-1.7-1.7c-3.8-3.9-10.1-3.9-13.9 0-3.9 3.8-3.9 10.1 0 13.9l3.4 3.4c3.8 3.8 10.1 3.8 13.9 0l-3.5-3.5c-1.9 1.9-5 1.9-7 0l-3.4-3.4c-1.9-1.9-1.9-5 0-7 1.9-1.9 5-1.9 7 0l1.7 1.7z"/><path d="m14.4 28.4 1.7 1.7c3.8 3.8 10.1 3.8 13.9 0s4-10 .1-13.8l-3.5-3.5c-3.7-3.8-10-3.8-13.8 0l3.5 3.5c1.9-1.9 5-1.9 7 0l3.4 3.4c1.9 1.9 1.9 5 0 7-1.9 1.9-5 1.9-7 0l-1.7-1.7z"/></g><g transform="translate(1 1)"><path d="m0 0h8v8h-8z"/><path d="m0 12h8v8h-8z"/><path d="m0 24h8v8h-8z"/><path d="m11 0v8h21v-8z"/><path d="m11 17v3h21v-8h-21z"/><path d="m11 29v3h21v-8h-21z"/></g><g transform="translate(1 1)"><path d="m0 0v8h32v-8z"/><path d="m0 17v3h32v-8h-32z"/><path d="m0 29v3h32v-8h-32z"/></g><path d="m29.8 8-3.5 2c1 1.8 1.6 3.8 1.6 6 0 6.6-5.4 12-12 12s-11.9-5.4-11.9-12 5.4-12 12-12v-4c-8.8 0-16 7.2-16 16s7.2 16 16 16 16-7.2 16-16c0-2.9-.8-5.6-2.2-8z" transform="translate(1 1)"/><path d="m16 0c-8.8 0-16 7.2-16 16s7.2 16 16 16 16-7.2 16-16-7.2-16-16-16zm2 27.8v-4.8h-4v4.8c-5-.8-9-4.8-9.8-9.8h4.8v-4h-4.8c.8-5 4.8-9 9.8-9.8v4.8h4v-4.8c5 .8 9 4.8 9.8 9.8h-4.8v4h4.8c-.8 5-4.8 9-9.8 9.8z" transform="translate(1 1)"/><path d="m22 13.9v-5.6c0-4.6-4.1-8.3-9-8.3s-9 3.7-9 8.3v5.6h-4v18h26v-18zm-13-5.6c0-2 1.8-3.7 4-3.7s4 1.6 4 3.7v5.6h-8z" transform="translate(4 1)"/><g transform="translate(1 13)"><path d="m0 0h8v8h-8z"/><path d="m12 0h8v8h-8z"/><path d="m24 0h8v8h-8z"/></g><g transform="translate(13 1)"><path d="m0 0h8v8h-8z"/><path d="m0 12h8v8h-8z"/><path d="m0 24h8v8h-8z"/></g></g><g transform="translate(1 1)"><path d="m0 0h56v32h-56z" fill="#000"/><g fill="#fff"><path d="m4 7.9h4.3l5.6 9.8v-9.8h3.9v16h-4.3l-5.5-10v10h-4z"/><path d="m20.2 7.9h11.4v3.3h-7.2v2.8h6.5v3.2h-6.5v3h7.4v3.6h-11.6z"/><path d="m48.5 23.9h-3.8l-2-11-2 11h-3.9l-3.9-16h3.8l2.1 11.7 2.1-11.7h3.6l2.1 11.7 2.1-11.7h3.8z"/></g></g><path d="m26 16-26-16v7.2l14.6 8.8-14.6 8.8v7.2z" fill="#000" transform="translate(4 1)"/><path d="m32 3.5-3.5-3.5-12.5 12.5-12.5-12.5-3.5 3.5 12.5 12.5-12.5 12.5 3.5 3.5 12.5-12.5 12.5 12.5 3.5-3.5-12.5-12.5z" fill="#000" transform="translate(1 1)"/><path d="m0 16 26 16v-7.2l-14.6-8.8 14.6-8.8v-7.2z" fill="#000" transform="translate(4 1)"/><path d="m26 12v-7l-5-5h-15v12h-6v12.1l5.9 5.9h.1v2h20v-2h.1l5.9-5.9v-12.1zm-18 0v-10h12.2l3.8 3.8v12.2h-16zm0 18v-5h16v5z" fill="#000" transform="translate(1 1)"/><g fill="#000" transform="translate(1 1)"><path d="m0 17v15h15v-15h-8c.2-5.9 2.4-8.8 8-9.9v-7.1c-8.3 1.2-14.8 8.3-15 17z"/><path d="m32 7.1v-7.1c-8.3 1.2-14.8 8.3-15 17v15h15v-15h-8c.2-5.9 2.4-8.8 8-9.9z"/></g><g fill="#000" transform="translate(1 1)"><path d="m32 0h-12v12h4v-4.9c2.4 2.2 4 5.4 4 8.9 0 6.6-5.4 12-12 12v4c8.8 0 16-7.2 16-16 0-4.8-2.1-9.1-5.4-12h5.4z"/><path d="m8 24.9c-2.4-2.2-4-5.4-4-8.9 0-6.6 5.4-12 12-12v-4c-8.8 0-16 7.2-16 16 0 4.8 2.1 9.1 5.4 12h-5.4v4h12v-12h-4z"/></g><path d="m33 28.5-8.2-8.2c3.4-5.1 2.9-12-1.6-16.4-2.5-2.6-5.9-3.9-9.2-3.9s-6.7 1.3-9.2 3.8c-5.1 5.1-5.1 13.3 0 18.4 2.5 2.5 5.9 3.8 9.2 3.8 2.5 0 5.1-.7 7.3-2.2l8.2 8.2zm-25.4-9.1c-1.7-1.7-2.6-4-2.6-6.4s.9-4.7 2.6-6.4 4-2.6 6.4-2.6 4.7.9 6.4 2.6c3.5 3.5 3.5 9.2 0 12.7-1.7 1.7-4 2.6-6.4 2.6s-4.7-.8-6.4-2.5z" fill="#000" transform="translate(0 1)"/><path d="m32.7 20.7-3.6-1.5c.3-1.5.3-3 0-4.5l3.6-1.5c.3-.1.4-.4.3-.7l-1.6-3.8c-.1-.3-.4-.4-.7-.3l-3.6 1.6c-.9-1.3-1.9-2.3-3.2-3.2l1.5-3.6c.1-.3 0-.6-.3-.7l-3.7-1.5c-.3-.1-.6 0-.7.3l-1.5 3.6c-1.5-.3-3-.3-4.5 0l-1.5-3.6c-.1-.3-.4-.4-.7-.3l-3.7 1.6c-.2.1-.4.4-.3.7l1.5 3.6c-1.2.8-2.3 1.9-3.1 3.1l-3.6-1.5c-.3-.1-.6.1-.7.3l-1.6 3.8c-.1.3 0 .6.3.7l3.6 1.5c-.3 1.5-.3 3 0 4.5l-3.6 1.5c-.3.1-.4.4-.3.7l1.6 3.8c.1.3.4.4.7.3l3.6-1.6c.9 1.3 1.9 2.3 3.2 3.2l-1.5 3.6c-.1.3 0 .6.3.7l3.8 1.6c.3.1.6 0 .7-.3l1.5-3.6c1.5.3 3 .3 4.5 0l1.5 3.6c.1.3.4.4.7.3l3.8-1.6c.3-.1.4-.4.3-.7l-1.7-3.7c1.3-.9 2.3-1.9 3.2-3.2l3.6 1.5c.3.1.6 0 .7-.3l1.6-3.8c0-.2-.2-.5-.4-.6zm-14.2 0c-2 .8-4.4-.1-5.2-2.2-.8-2 .1-4.4 2.2-5.2 2-.8 4.4.1 5.2 2.2.8 2-.1 4.4-2.2 5.2z" fill="#000"/><g fill="#000" transform="translate(1 2)"><path d="m0 25.9h32v3h-32z"/><path d="m16 25.9-16-25h8.2l7.8 13.2 7.8-13.2h8.2z"/></g><g fill="#000" transform="translate(1 2)"><path d="m0 .9h32v3h-32z"/><path d="m16 3.9 16 25h-8.2l-7.8-13.3-7.8 13.3h-8.2z"/></g><g fill="#000" transform="translate(1 1)"><path d="m25 16-25 16v-8l13-8-13-7.8v-8.2z"/><path d="m21 0v2h9v28h-9v2h11v-32z"/></g><path d="m23 0c-5 0-9 4.1-9 9v5h-14v18h23v-18h-4v-5c0-2.2 1.8-4 4-4s4 1.8 4 4v5h5v-5c0-4.9-4-9-9-9z" fill="#000" transform="translate(1 1)"/><path d="m16 0-16 26h7.2l8.8-15.3 8.8 15.3h7.2z" fill="#000" transform="translate(1 4)"/><g fill="#000" transform="translate(1 1)"><path d="m0 0v18h12.7l1.2 2 2.5 4 2.5-4 1.2-2h11.9v-18zm22 14h-18v-4h18zm6-6h-24v-4h24z"/><path d="m0 26h32v6h-32z"/></g><path d="m12.8 25.9 19-22.6-3.8-3.2-15.8 18.8-9-7.5-3.2 3.8z" fill="#000" transform="translate(1 4)"/><g fill="#000" transform="translate(0 1)"><path d="m16 20h-4v-5h-5v-4h5v-5h4v5h5v4h-5z"/><path d="m33 28.5-8.2-8.2c3.4-5.1 2.9-12-1.6-16.4-2.5-2.6-5.9-3.9-9.2-3.9s-6.7 1.3-9.2 3.8c-5.1 5.1-5.1 13.3 0 18.4 2.5 2.5 5.9 3.8 9.2 3.8 2.5 0 5.1-.7 7.3-2.2l8.2 8.2zm-25.4-9.1c-1.7-1.7-2.6-4-2.6-6.4s.9-4.7 2.6-6.4 4-2.6 6.4-2.6 4.7.9 6.4 2.6c3.5 3.5 3.5 9.2 0 12.7-1.7 1.7-4 2.6-6.4 2.6-2.4.1-4.7-.8-6.4-2.5z"/></g><g fill="#000" transform="translate(0 1)"><path d="m7 15v-4h14v4z"/><path d="m33 28.5-8.2-8.2c3.4-5.1 2.9-12-1.6-16.4-2.5-2.6-5.9-3.9-9.2-3.9s-6.7 1.3-9.2 3.8c-5.1 5.1-5.1 13.3 0 18.4 2.5 2.5 5.9 3.8 9.2 3.8 2.5 0 5.1-.7 7.3-2.2l8.2 8.2zm-25.4-9.1c-1.7-1.7-2.6-4-2.6-6.4s.9-4.7 2.6-6.4 4-2.6 6.4-2.6 4.7.9 6.4 2.6c3.5 3.5 3.5 9.2 0 12.7-1.7 1.7-4 2.6-6.4 2.6-2.4.1-4.7-.8-6.4-2.5z"/></g><path d="m32 13h-13v-13h-6v13h-13v6h13v13h6v-13h13z" fill="#000" transform="translate(1 1)"/></g></svg>